<?xml version="1.0" standalone="no"?>
<!DOCTYPE svg PUBLIC "-//W3C//DTD SVG 20010904//EN"
 "http://www.w3.org/TR/2001/REC-SVG-20010904/DTD/svg10.dtd">
<svg version="1.0" xmlns="http://www.w3.org/2000/svg"
 width="1280.000000pt" height="1138.000000pt" viewBox="0 0 1280.000000 1138.000000"
 preserveAspectRatio="xMidYMid meet">
<metadata>
Created by potrace 1.15, written by Peter Selinger 2001-2017
</metadata>
<g transform="translate(0.000000,1138.000000) scale(0.100000,-0.100000)"
fill="#03a9f4" stroke="none">
<path d="M11230 11354 c-30 -15 -75 -37 -100 -51 -25 -13 -70 -36 -100 -51
-30 -15 -56 -30 -58 -34 -2 -5 -9 -8 -16 -8 -7 0 -32 -13 -54 -30 -23 -16 -44
-30 -46 -30 -3 0 -34 -20 -70 -45 -37 -25 -69 -45 -72 -45 -2 0 -29 -18 -59
-40 -30 -22 -58 -40 -63 -40 -5 0 -26 -13 -48 -30 -21 -16 -43 -30 -48 -30 -5
0 -34 -17 -65 -37 -69 -46 -101 -65 -169 -97 -29 -14 -72 -44 -96 -66 -24 -22
-48 -40 -55 -40 -6 0 -11 -4 -11 -9 0 -5 -11 -12 -25 -15 -13 -3 -40 -20 -59
-36 -18 -17 -36 -30 -40 -30 -3 0 -31 -20 -62 -45 -30 -25 -61 -45 -69 -45 -8
0 -15 -3 -15 -8 0 -8 -71 -32 -95 -32 -8 0 -34 19 -57 42 -44 44 -230 143
-290 155 -18 3 -37 9 -43 13 -5 4 -64 15 -130 25 -66 10 -124 21 -129 26 -14
13 -403 11 -411 -1 -3 -5 -25 -10 -49 -10 -23 0 -87 -7 -142 -15 -54 -8 -120
-15 -146 -15 -26 0 -49 -4 -52 -9 -3 -4 -40 -14 -83 -21 -43 -6 -82 -15 -88
-19 -5 -4 -44 -14 -85 -20 -41 -7 -88 -21 -105 -31 -16 -10 -48 -22 -70 -25
-22 -4 -47 -13 -55 -19 -36 -29 -141 -75 -183 -81 -26 -4 -52 -13 -58 -21 -15
-19 -99 -19 -99 -1 0 8 -11 24 -25 37 -14 13 -25 29 -25 36 0 16 -116 120
-167 151 -21 12 -54 32 -73 43 -19 11 -48 29 -65 40 -26 18 -63 36 -140 70
-11 5 -40 15 -65 21 -25 7 -49 16 -55 19 -5 4 -35 15 -65 24 -30 10 -64 21
-75 26 -11 5 -63 16 -115 25 -52 9 -106 22 -119 28 -35 17 -565 17 -583 0 -6
-7 -30 -13 -52 -13 -44 0 -200 -26 -231 -39 -11 -5 -53 -16 -93 -26 -41 -9
-86 -23 -100 -31 -15 -8 -34 -14 -42 -14 -8 0 -26 -6 -40 -13 -14 -7 -47 -19
-75 -27 -55 -15 -141 -55 -166 -76 -8 -8 -56 -35 -105 -60 -49 -26 -104 -59
-124 -75 -19 -16 -39 -29 -43 -29 -9 0 -143 -117 -251 -219 -60 -57 -166 -184
-166 -198 0 -4 -16 -28 -35 -52 -19 -24 -35 -50 -35 -57 0 -7 -3 -14 -7 -16
-5 -1 -23 -36 -42 -75 l-35 -73 -48 0 c-27 0 -56 -4 -66 -9 -9 -5 -91 -17
-181 -25 -90 -9 -169 -20 -175 -25 -6 -5 -56 -14 -111 -20 -55 -7 -104 -16
-109 -21 -6 -6 -19 -10 -30 -10 -21 0 -93 -22 -131 -40 -11 -5 -46 -14 -79
-20 -32 -5 -64 -14 -70 -19 -6 -4 -38 -16 -71 -27 -33 -10 -62 -21 -65 -24 -3
-3 -32 -15 -65 -25 -51 -16 -125 -48 -197 -86 -42 -22 -216 -114 -244 -129
-17 -9 -59 -37 -93 -63 -34 -26 -65 -47 -70 -47 -5 0 -11 -7 -15 -15 -3 -8
-12 -15 -21 -15 -18 0 -305 -288 -305 -307 0 -6 -6 -16 -13 -20 -6 -4 -17 -18
-24 -30 -52 -93 -92 -174 -102 -208 -12 -38 -22 -63 -62 -150 -26 -56 -43
-293 -35 -462 l7 -133 -63 -39 c-61 -38 -118 -88 -118 -103 0 -4 -13 -26 -28
-50 -43 -64 -112 -204 -112 -227 0 -5 -6 -14 -14 -20 -7 -6 -16 -34 -19 -62
-4 -28 -13 -61 -20 -73 -20 -30 -38 -157 -38 -264 0 -101 18 -249 32 -258 5
-3 9 -16 9 -29 0 -24 19 -75 31 -85 3 -3 12 -23 19 -45 7 -22 21 -54 31 -71
11 -17 19 -37 19 -43 0 -7 26 -45 58 -84 32 -40 61 -79 64 -87 12 -32 141
-172 220 -238 46 -38 94 -81 107 -96 14 -14 28 -26 33 -26 5 0 33 -18 62 -40
l54 -39 3 -199 c3 -127 8 -204 15 -213 6 -8 15 -41 19 -73 4 -33 15 -76 26
-95 10 -20 19 -46 19 -59 0 -28 23 -102 31 -102 4 0 10 -12 14 -27 10 -40 35
-93 62 -129 13 -17 23 -34 23 -38 0 -14 73 -126 81 -126 5 0 9 -6 9 -13 0 -22
199 -221 265 -265 33 -22 119 -69 190 -105 105 -52 145 -66 210 -76 44 -6 84
-16 89 -21 6 -6 29 -10 53 -10 35 0 43 -3 43 -18 0 -18 -58 -82 -74 -82 -5 0
-23 -12 -41 -28 -18 -15 -45 -35 -59 -45 -14 -10 -26 -27 -26 -37 0 -19 8 -20
138 -20 77 0 142 4 148 10 5 5 50 12 99 15 177 11 350 28 355 35 3 3 54 12
115 19 60 7 114 16 120 21 5 4 36 11 68 15 48 6 57 5 57 -8 0 -9 -9 -21 -20
-27 -11 -6 -20 -17 -20 -26 0 -8 -8 -18 -18 -21 -9 -4 -22 -13 -27 -20 -6 -8
-20 -19 -31 -26 -29 -17 -174 -124 -262 -194 -41 -32 -81 -62 -91 -68 -9 -5
-54 -40 -98 -77 -45 -38 -84 -68 -89 -68 -4 0 -19 -11 -33 -24 -53 -50 -239
-206 -246 -206 -4 0 -46 -34 -95 -75 -49 -41 -91 -75 -93 -75 -3 0 -16 -9 -29
-20 -158 -134 -227 -190 -233 -190 -6 0 -207 -168 -255 -213 -14 -13 -32 -26
-40 -29 -8 -3 -90 -76 -182 -162 -91 -86 -170 -156 -174 -156 -20 0 -294 -274
-294 -294 0 -17 6 -18 56 -12 30 3 65 12 77 20 12 7 51 16 86 20 35 3 69 10
75 14 6 5 47 17 91 26 44 10 88 22 98 27 10 5 66 14 125 20 109 10 131 14 167
29 20 8 276 30 348 30 30 0 36 -3 30 -14 -12 -22 -153 -136 -179 -146 -13 -5
-24 -14 -24 -20 0 -5 -6 -10 -12 -10 -7 0 -39 -20 -70 -45 -32 -25 -60 -45
-63 -45 -3 0 -37 -25 -74 -55 -38 -30 -71 -55 -75 -55 -3 0 -14 -7 -23 -16
-32 -28 -161 -124 -168 -124 -3 0 -38 -25 -76 -56 -39 -31 -80 -61 -92 -67
-12 -7 -64 -48 -116 -92 -51 -44 -99 -82 -107 -85 -7 -3 -83 -67 -168 -142
-86 -76 -158 -138 -161 -138 -5 0 -184 -147 -243 -200 -12 -11 -25 -20 -28
-20 -4 0 -64 -52 -134 -115 -71 -63 -131 -115 -135 -115 -6 0 -213 -172 -251
-209 -12 -12 -24 -21 -28 -21 -4 0 -42 -29 -85 -65 -43 -36 -82 -65 -85 -65
-4 0 -38 -25 -76 -55 -38 -30 -73 -55 -77 -55 -5 0 -14 -9 -21 -20 -7 -11 -17
-20 -23 -20 -6 0 -40 -22 -75 -50 -35 -27 -67 -50 -70 -50 -4 0 -37 -24 -73
-53 -36 -30 -77 -60 -91 -68 -13 -8 -51 -35 -85 -61 -33 -27 -65 -48 -72 -48
-8 0 -13 -13 -13 -35 0 -28 4 -35 20 -35 11 0 28 4 38 9 9 5 41 17 71 26 30 9
79 33 110 54 31 20 67 42 81 49 30 15 81 46 140 86 24 15 62 38 84 50 23 13
64 35 91 51 28 15 59 33 70 39 11 6 22 13 25 16 3 3 16 11 30 18 14 8 46 25
71 40 139 81 195 112 207 112 6 0 12 4 12 9 0 5 8 11 17 14 10 4 45 22 78 41
33 19 85 48 115 64 84 43 173 94 190 106 8 7 31 20 50 29 19 10 58 31 85 47
28 16 68 38 90 50 59 31 94 51 153 88 29 17 55 32 58 32 3 0 25 14 49 30 24
17 47 30 52 30 5 0 24 11 43 23 19 13 58 37 85 52 28 16 73 41 100 57 28 16
64 35 80 44 17 8 50 28 75 44 25 16 59 36 75 45 17 9 53 29 80 45 28 17 68 39
90 50 22 12 60 34 85 50 25 16 63 38 85 49 22 12 63 34 90 51 28 16 57 33 65
36 8 4 44 25 80 48 36 23 74 47 85 53 142 84 236 140 266 159 19 13 38 24 42
24 4 0 33 18 64 40 32 22 61 40 65 40 4 0 27 14 51 30 25 17 48 30 51 30 3 0
32 18 63 40 32 22 61 40 65 40 4 0 36 20 72 45 37 25 70 45 74 45 5 0 26 13
48 30 21 16 43 30 47 30 5 0 34 18 66 40 31 22 61 40 66 40 4 0 16 7 25 15 9
8 35 25 57 37 39 22 59 34 196 123 34 22 116 67 182 100 66 33 156 84 199 113
44 29 95 60 114 67 18 8 51 28 72 45 21 16 41 30 44 30 6 0 100 61 123 80 7 5
16 10 21 10 5 0 28 14 50 30 23 17 45 30 49 30 9 0 143 103 143 110 0 8 -48 5
-57 -3 -3 -4 -21 -7 -39 -7 -39 0 -134 -19 -149 -30 -5 -4 -44 -13 -85 -20
-41 -7 -80 -17 -87 -22 -6 -5 -20 -8 -30 -6 -10 1 -22 0 -28 -3 -5 -3 -32 -12
-60 -19 -27 -7 -54 -17 -60 -21 -5 -4 -39 -15 -75 -24 -36 -9 -69 -20 -75 -25
-5 -4 -28 -11 -50 -15 -22 -3 -53 -13 -70 -20 -16 -8 -61 -21 -100 -31 -38 -9
-75 -20 -80 -24 -6 -5 -33 -14 -60 -20 -28 -6 -60 -17 -72 -22 -30 -15 -108
-16 -108 -2 0 10 178 164 190 164 4 0 74 62 156 138 83 75 155 139 160 141 6
2 27 20 47 40 20 20 44 41 53 46 9 6 62 49 117 97 56 49 104 88 107 88 8 0
130 106 237 207 43 40 83 73 89 73 6 0 45 28 87 62 42 35 84 68 93 73 9 6 53
38 98 73 45 34 84 62 87 62 3 0 33 23 66 50 33 28 66 50 74 50 8 0 14 4 14 8
0 5 19 15 43 22 23 8 54 22 69 32 47 32 96 24 160 -27 32 -25 60 -45 64 -45 3
0 36 -25 72 -55 37 -30 72 -55 79 -55 7 0 13 -4 13 -9 0 -10 20 -22 105 -66
28 -14 57 -29 65 -33 8 -5 40 -20 70 -34 30 -14 80 -37 110 -51 30 -15 69 -29
85 -33 17 -4 39 -13 50 -20 11 -8 26 -14 35 -14 8 0 28 -7 44 -15 16 -9 31
-13 34 -10 3 3 10 1 16 -4 6 -4 47 -14 91 -21 44 -7 85 -17 91 -21 6 -5 64
-13 129 -19 65 -6 124 -15 132 -22 16 -13 171 -26 428 -34 189 -7 749 11 769
24 6 3 20 5 30 3 10 -1 28 2 40 7 12 6 64 16 115 22 52 7 102 16 110 20 9 4
63 15 120 24 57 9 109 20 115 25 6 5 27 12 46 16 19 4 49 13 65 20 50 21 88
33 125 40 39 7 44 9 150 58 215 100 279 133 321 169 26 22 61 47 78 56 17 9
81 64 142 121 l110 104 46 -7 c26 -3 57 -13 70 -22 13 -8 32 -14 41 -13 9 1
24 -1 32 -4 88 -36 646 -36 740 0 8 4 21 5 28 4 8 -1 30 5 49 14 18 9 51 19
71 22 20 3 42 9 47 13 6 4 28 13 50 20 21 7 60 24 86 36 26 13 54 24 63 24 9
0 16 5 16 10 0 6 6 10 14 10 7 0 30 14 51 30 21 17 42 30 47 30 21 0 141 101
272 229 158 156 234 260 261 361 10 36 21 70 25 75 4 6 13 33 19 60 7 28 17
59 22 70 13 31 39 182 39 231 0 23 5 46 10 49 13 8 13 289 1 313 -13 24 -31
105 -31 140 0 15 -7 37 -15 48 -8 10 -15 28 -15 39 0 11 -8 31 -17 45 -19 26
-40 64 -86 154 -32 64 -203 229 -268 260 -37 17 -52 47 -30 60 16 10 61 113
70 159 4 26 14 53 20 61 21 25 34 221 27 420 -5 160 -8 193 -25 220 -10 17
-22 52 -25 78 -4 26 -11 50 -16 53 -5 3 -14 23 -20 45 -6 21 -22 52 -35 68
-14 17 -25 35 -25 40 0 16 -42 86 -57 95 -7 4 -13 13 -13 20 0 13 -190 207
-202 207 -4 0 -37 23 -73 50 -36 28 -74 50 -83 50 -9 0 -30 9 -47 20 -16 11
-40 20 -53 20 -30 0 -102 23 -102 32 0 5 -15 8 -32 8 l-33 0 3 96 c2 60 -1
101 -7 107 -6 6 -11 35 -11 63 0 94 -45 259 -80 294 -3 3 -13 21 -23 40 -10
19 -24 47 -32 61 -22 40 -179 202 -211 219 -16 8 -49 29 -74 46 -25 17 -65 36
-90 43 -25 7 -54 18 -65 25 -11 7 -49 16 -85 21 -36 4 -87 10 -115 14 l-50 6
-5 217 c-5 205 -6 218 -27 247 -13 17 -23 38 -23 48 0 10 -7 28 -15 41 -9 12
-24 54 -34 93 l-18 72 51 50 c28 28 59 62 68 76 24 35 410 421 422 421 5 0 18
9 30 20 12 11 66 60 121 109 132 117 525 517 525 535 0 8 6 16 14 19 19 8 9
47 -13 47 -9 0 -41 -12 -71 -26z"/>
<path d="M11160 10935 c-7 -8 -19 -15 -26 -15 -8 0 -14 -5 -14 -10 0 -6 -8
-13 -17 -17 -19 -7 -58 -42 -303 -276 -142 -136 -153 -148 -138 -163 15 -15
27 -6 158 122 142 138 367 374 357 374 -2 0 -10 -7 -17 -15z"/>
<path d="M8245 10913 c-33 -2 -69 -8 -80 -13 -11 -5 -49 -11 -85 -14 -69 -4
-174 -26 -186 -39 -4 -4 -19 -7 -33 -7 -14 0 -44 -11 -66 -25 -22 -13 -47 -25
-55 -25 -8 0 -31 -14 -50 -30 -19 -17 -38 -30 -43 -30 -21 0 -62 -46 -59 -67
3 -19 6 -20 40 -12 41 11 108 44 135 67 48 42 116 69 191 77 37 4 69 11 72 16
3 5 21 9 41 9 47 0 165 20 178 30 6 4 51 11 100 15 50 4 110 15 135 25 25 10
52 21 60 23 16 6 -195 5 -295 0z"/>
<path d="M9210 10885 c-7 -14 -10 -28 -6 -32 4 -5 42 -13 83 -20 42 -6 79 -16
82 -21 3 -5 17 -13 31 -16 43 -13 222 -98 265 -126 34 -23 75 -26 75 -7 0 20
-89 96 -140 121 -25 11 -47 24 -50 27 -3 3 -21 11 -40 18 -19 7 -44 17 -55 22
-40 18 -121 39 -152 39 -17 0 -35 5 -38 10 -11 18 -41 10 -55 -15z"/>
<path d="M4481 10581 c-7 -12 -17 -21 -24 -21 -15 0 -257 -241 -257 -256 0 -6
-18 -36 -40 -68 -22 -31 -40 -63 -40 -70 0 -7 -9 -25 -20 -39 -26 -33 -27 -87
-2 -87 32 0 92 81 92 124 0 14 4 27 9 30 5 3 12 18 15 32 4 15 34 57 67 93 32
36 59 71 59 77 0 13 42 54 56 54 12 0 74 63 74 75 0 5 10 19 22 32 16 17 19
26 11 34 -8 8 -14 5 -22 -10z"/>
<path d="M3916 10229 c-14 -11 -26 -26 -26 -33 0 -7 -9 -21 -20 -31 -11 -10
-20 -26 -20 -35 0 -9 -9 -25 -19 -34 -11 -10 -23 -31 -26 -47 -4 -16 -7 -32
-8 -36 -1 -3 10 -10 26 -14 21 -6 27 -4 27 9 0 10 9 28 20 42 11 14 20 29 20
34 0 8 31 77 61 138 18 35 4 38 -35 7z"/>
<path d="M10307 10174 c-14 -14 -6 -41 47 -149 29 -60 59 -126 65 -145 7 -19
15 -117 18 -217 3 -101 9 -183 13 -183 26 0 30 33 30 243 0 198 -2 221 -19
245 -10 15 -26 45 -35 67 -9 21 -24 47 -32 56 -9 10 -23 33 -32 51 -16 32 -41
46 -55 32z"/>
<path d="M10570 9821 c0 -11 4 -22 9 -25 4 -3 11 -43 15 -88 11 -136 16 -160
32 -147 16 13 20 179 5 195 -5 5 -11 25 -13 44 -2 27 -8 36 -25 38 -17 3 -23
-2 -23 -17z"/>
<path d="M1971 9183 c-34 -37 -61 -72 -61 -77 0 -5 -8 -19 -19 -30 -10 -12
-30 -42 -44 -68 -14 -25 -37 -64 -51 -87 -14 -22 -26 -43 -26 -45 0 -3 -11
-22 -25 -42 -14 -20 -25 -47 -25 -60 0 -12 -4 -25 -9 -28 -5 -3 -14 -43 -21
-88 -7 -46 -16 -87 -20 -93 -5 -5 -12 -43 -15 -82 -8 -80 -2 -88 43 -57 18 13
22 25 22 71 0 69 26 217 46 260 8 17 14 39 14 48 0 9 8 29 19 43 10 15 24 45
32 67 8 22 37 69 65 105 28 36 57 76 65 90 8 13 31 48 52 77 20 29 37 55 37
58 0 17 -26 -3 -79 -62z"/>
<path d="M10970 9214 c0 -17 17 -47 48 -83 61 -71 127 -207 143 -291 6 -36 15
-74 20 -85 5 -11 10 -56 11 -100 l3 -80 24 38 c21 35 23 46 19 145 -2 81 -7
113 -21 132 -9 13 -17 30 -17 38 0 13 -59 139 -82 177 -7 11 -24 34 -38 52
-14 17 -33 43 -43 57 -25 36 -67 36 -67 0z"/>
<path d="M1674 8115 c-10 -8 -26 -15 -34 -15 -21 0 -107 -73 -139 -117 -28
-40 -124 -231 -136 -273 -4 -14 -12 -28 -17 -31 -5 -3 -11 -23 -14 -45 l-6
-39 51 55 c27 30 50 58 51 63 0 4 24 37 53 74 28 37 61 81 72 99 11 18 53 71
93 118 68 79 73 87 59 105 -12 19 -16 19 -33 6z"/>
<path d="M11930 7797 c0 -12 6 -31 13 -42 8 -11 21 -47 31 -80 9 -33 21 -68
26 -77 14 -25 30 -217 30 -353 0 -145 -18 -356 -31 -370 -14 -14 -11 -65 5
-65 14 0 26 29 26 63 0 11 6 33 14 50 22 50 36 121 36 181 0 30 5 58 10 61 12
8 13 172 1 179 -5 3 -11 43 -15 88 -7 104 -15 157 -26 183 -4 11 -16 52 -26
90 -21 86 -39 115 -70 115 -18 0 -24 -5 -24 -23z"/>
<path d="M12195 7058 c-4 -24 -11 -47 -15 -53 -4 -5 -10 -30 -13 -55 -15 -128
-20 -156 -29 -167 -5 -7 -5 -13 0 -17 24 -14 72 91 78 171 3 37 10 77 16 89
14 29 6 68 -14 72 -12 2 -18 -7 -23 -40z"/>
<path d="M12287 6353 c-13 -12 -7 -39 17 -89 14 -27 34 -80 45 -119 11 -38 27
-88 35 -110 8 -22 15 -54 16 -72 0 -17 5 -35 10 -38 12 -7 14 -192 2 -199 -5
-3 -14 -56 -21 -118 -8 -62 -17 -117 -21 -123 -4 -5 -16 -39 -25 -75 -10 -36
-21 -69 -25 -75 -5 -5 -16 -39 -25 -75 -10 -36 -22 -70 -26 -75 -13 -17 -37
-95 -28 -89 46 28 169 262 197 373 10 39 21 74 25 78 4 3 7 102 7 219 0 168
-3 218 -15 240 -8 16 -15 46 -15 66 0 34 -16 86 -31 98 -3 3 -12 23 -19 45
-34 110 -76 166 -103 138z"/>
<path d="M2022 5910 c-12 -12 -22 -29 -22 -40 0 -10 -5 -20 -11 -22 -13 -4
-14 -219 -1 -227 5 -3 15 -33 22 -66 6 -33 16 -68 21 -77 5 -10 9 -26 9 -35 0
-18 23 -92 40 -128 5 -11 16 -42 25 -70 22 -67 55 -135 66 -135 12 0 12 37 0
44 -5 3 -12 23 -16 43 -3 21 -15 55 -26 76 -11 21 -24 62 -30 90 -6 29 -16 58
-22 66 -7 8 -13 102 -15 257 -3 134 -8 244 -11 244 -4 0 -17 -9 -29 -20z"/>
<path d="M1829 5865 c-7 -31 -16 -58 -21 -61 -11 -7 -10 -81 1 -88 4 -3 11
-20 15 -38 l6 -33 15 29 c17 32 22 246 6 246 -5 0 -15 -25 -22 -55z"/>
<path d="M12129 4853 c-35 -69 -71 -116 -174 -221 -91 -95 -204 -192 -223
-192 -6 0 -23 -11 -39 -24 -15 -13 -82 -49 -148 -81 -66 -32 -132 -64 -146
-71 -14 -7 -46 -16 -70 -20 -24 -4 -57 -15 -74 -25 -16 -9 -50 -20 -75 -24
-24 -4 -51 -11 -60 -16 -8 -4 -28 -11 -45 -15 l-30 -8 33 -4 c57 -6 197 16
233 37 19 10 53 22 77 26 23 4 42 11 42 16 0 5 7 9 16 9 22 0 264 120 264 131
0 5 6 9 13 9 7 0 31 13 53 30 21 16 43 30 47 30 18 0 118 84 192 162 116 119
144 159 152 213 3 25 10 48 15 51 9 6 -9 34 -22 34 -4 0 -18 -21 -31 -47z"/>
<path d="M10256 4271 c-3 -4 -18 -11 -33 -14 -17 -3 -62 -39 -115 -91 -67 -66
-96 -87 -130 -96 -23 -6 -59 -19 -78 -29 -19 -10 -50 -22 -67 -26 -18 -3 -35
-11 -38 -16 -4 -5 -13 -9 -21 -9 -8 0 -44 -13 -79 -30 -35 -16 -69 -30 -74
-30 -16 0 -131 -63 -131 -72 0 -4 5 -8 10 -8 6 0 10 5 10 10 0 6 24 10 53 10
53 0 167 24 177 38 3 4 75 41 160 84 86 42 179 95 208 117 28 23 54 41 57 41
2 0 32 21 65 46 37 28 60 53 60 65 0 19 -24 27 -34 10z"/>
<path d="M10445 4190 c-10 -11 -22 -20 -27 -20 -5 0 -40 -25 -78 -55 -37 -30
-94 -67 -126 -82 -32 -15 -65 -34 -74 -41 -8 -7 -28 -24 -45 -38 l-30 -26 34
6 c19 4 57 17 85 30 28 13 78 36 111 51 33 15 81 45 106 66 26 22 51 39 56 39
6 0 18 9 28 20 16 18 17 23 5 45 -16 30 -22 31 -45 5z"/>
<path d="M3672 4113 c-48 -4 -53 -6 -50 -26 3 -19 10 -22 56 -25 28 -2 52 -6
52 -10 0 -11 -87 -82 -99 -82 -6 0 -15 -9 -21 -20 -6 -11 -16 -20 -23 -20 -7
0 -46 -30 -87 -66 -41 -36 -84 -69 -95 -74 -21 -8 -188 -151 -200 -171 -11
-16 78 35 139 81 29 22 57 40 63 40 5 0 27 13 49 30 21 16 42 30 47 30 4 0 36
23 71 50 35 28 68 50 74 50 5 0 12 7 16 15 3 8 11 15 19 15 7 0 31 18 52 41
22 22 66 61 98 86 31 24 55 49 52 54 -6 9 -100 9 -213 2z"/>
<path d="M6116 4021 c-18 -29 72 -171 109 -171 7 0 19 -7 26 -16 21 -25 124
-72 187 -84 31 -7 62 -16 67 -20 6 -5 13 -9 17 -9 4 -1 13 -3 20 -5 40 -11
139 -26 171 -26 19 0 39 -4 42 -10 4 -6 58 -10 131 -10 98 0 124 3 124 14 0
10 -25 15 -95 19 -52 3 -100 9 -107 13 -7 5 -21 7 -31 6 -10 -2 -24 1 -30 6
-7 5 -46 15 -87 22 -41 7 -79 16 -85 20 -5 4 -33 12 -60 18 -55 12 -119 45
-218 115 -22 15 -44 27 -49 27 -6 0 -29 19 -51 43 -43 45 -73 62 -81 48z"/>
<path d="M5686 3860 c-86 -43 -177 -95 -202 -115 -26 -19 -51 -35 -56 -35 -5
0 -29 -13 -53 -30 -24 -16 -48 -30 -53 -30 -5 0 -34 -18 -66 -40 -31 -22 -59
-40 -63 -40 -3 0 -36 -22 -74 -50 -38 -27 -72 -50 -76 -51 -5 0 -28 -16 -53
-35 -25 -18 -55 -38 -68 -44 -12 -5 -25 -17 -28 -25 -4 -8 -11 -15 -17 -15 -6
0 -36 -19 -66 -43 -31 -23 -68 -49 -83 -56 -16 -8 -28 -23 -28 -33 0 -15 5
-17 28 -12 44 10 105 41 162 84 30 22 58 40 63 40 5 0 40 23 78 50 38 28 71
50 74 50 3 0 30 18 60 40 30 22 57 40 61 40 4 0 33 20 63 43 31 24 67 50 81
57 14 7 51 33 83 56 31 24 61 44 65 44 5 0 35 20 68 45 32 24 63 45 67 45 4 0
32 18 62 40 30 22 59 40 64 40 6 0 16 9 23 20 7 11 18 20 25 20 6 0 15 5 18
10 3 6 4 10 2 10 -2 0 -74 -36 -161 -80z"/>
<path d="M7328 3574 c-17 -17 -6 -35 30 -51 20 -8 48 -21 61 -27 34 -16 759
-15 792 0 13 7 39 17 57 24 17 7 32 16 32 21 0 12 -87 11 -95 -1 -7 -12 -288
-14 -299 -2 -4 4 -101 12 -214 18 -114 7 -241 15 -282 19 -41 4 -78 4 -82 -1z"/>
<path d="M2460 2289 c-73 -12 -82 -24 -46 -55 15 -14 27 -27 24 -29 -9 -10
-80 -55 -86 -56 -4 0 -27 -16 -52 -34 -25 -19 -58 -42 -75 -51 -16 -10 -52
-34 -80 -54 -27 -20 -57 -39 -65 -42 -8 -3 -43 -26 -76 -52 -34 -25 -65 -46
-69 -46 -4 0 -32 -20 -64 -45 -31 -25 -60 -45 -64 -45 -4 0 -26 -13 -49 -30
-22 -16 -47 -30 -55 -30 -7 0 -13 -3 -13 -8 0 -4 -10 -12 -22 -17 -12 -6 -23
-17 -26 -25 -2 -11 -1 -12 5 -3 5 7 62 40 127 73 66 34 130 70 144 80 14 11
29 20 33 20 5 0 31 15 57 33 61 42 168 107 176 107 4 0 31 18 60 40 29 22 58
40 63 40 6 0 13 7 17 15 3 8 11 15 17 15 6 0 33 16 59 35 26 19 53 35 59 35 6
0 11 5 11 10 0 6 8 14 18 17 9 4 37 20 62 37 34 24 44 36 42 54 -4 25 -31 27
-132 11z"/>
<path d="M4155 2146 c-17 -6 -46 -21 -66 -33 -20 -13 -44 -23 -53 -23 -9 0
-16 -8 -16 -20 0 -11 6 -20 14 -20 46 0 166 69 166 95 0 17 -3 17 -45 1z"/>
<path d="M3815 1960 c-11 -5 -30 -9 -42 -9 -12 -1 -43 -15 -68 -32 -25 -17
-67 -38 -93 -47 -26 -10 -69 -32 -95 -50 -27 -18 -63 -39 -80 -48 -18 -8 -54
-28 -82 -44 -27 -16 -61 -35 -75 -42 -14 -7 -27 -15 -30 -18 -6 -7 -67 -39
-155 -84 -38 -19 -85 -47 -104 -61 -19 -14 -41 -25 -48 -25 -7 0 -13 -5 -13
-10 0 -6 -8 -13 -17 -17 -10 -4 -37 -19 -60 -35 -23 -15 -46 -28 -51 -28 -4 0
-35 -20 -66 -45 -32 -25 -62 -45 -65 -45 -4 0 -32 -18 -62 -41 -30 -22 -64
-45 -76 -50 -13 -5 -23 -12 -23 -17 0 -5 -18 -15 -40 -22 -22 -7 -40 -16 -40
-20 0 -4 -25 -20 -55 -34 -30 -15 -77 -43 -105 -62 -27 -19 -54 -34 -58 -34
-5 0 -7 -11 -4 -25 2 -14 9 -25 16 -25 20 1 91 36 105 53 7 10 19 17 26 17 7
0 25 12 40 26 36 33 142 99 220 138 17 8 51 30 77 50 25 20 66 46 90 59 24 13
66 36 93 52 28 15 59 33 70 39 11 6 22 13 25 16 3 3 16 11 30 18 65 32 159 89
248 149 34 24 66 43 70 43 4 0 24 11 44 25 20 14 59 37 85 51 26 15 68 38 93
52 25 14 59 33 75 42 17 8 55 31 85 50 30 20 66 41 80 48 60 31 88 65 35 42z"/>
<path d="M1540 1513 c-49 -17 -113 -54 -166 -95 -34 -27 -65 -48 -68 -48 -3 0
-37 -22 -75 -50 -38 -27 -73 -50 -79 -50 -5 0 -52 -38 -103 -85 -52 -47 -100
-85 -106 -85 -7 0 -20 -11 -29 -25 -9 -14 -21 -25 -28 -25 -6 -1 -47 -35 -91
-76 -74 -69 -77 -74 -42 -60 21 9 51 25 67 36 15 11 31 20 35 20 4 0 38 24 74
53 36 30 77 60 91 68 14 8 50 32 80 54 30 23 63 44 73 48 9 3 17 11 17 17 0 5
6 10 13 10 6 0 38 20 69 45 32 25 61 45 65 45 3 0 34 25 67 55 34 31 86 78
116 105 52 47 56 56 20 43z"/>
<path d="M1275 521 c-51 -19 -85 -36 -85 -43 0 -4 -7 -8 -15 -8 -9 0 -32 -11
-53 -23 -20 -13 -54 -30 -74 -38 -21 -7 -38 -17 -38 -21 0 -4 -15 -15 -32 -23
-41 -19 -78 -40 -148 -85 -60 -38 -101 -60 -200 -111 -36 -18 -89 -50 -118
-71 -29 -22 -70 -45 -90 -52 -21 -7 -39 -21 -40 -31 -3 -15 1 -17 30 -11 36 7
298 135 318 156 3 3 16 11 30 18 14 6 39 20 55 30 17 9 86 51 155 91 69 41
141 85 161 97 19 13 40 24 45 24 6 0 37 25 70 55 32 30 57 54 54 54 -3 -1 -14
-4 -25 -8z"/>
</g>
</svg>
