<?xml version="1.0" standalone="no"?>
<!DOCTYPE svg PUBLIC "-//W3C//DTD SVG 20010904//EN"
 "http://www.w3.org/TR/2001/REC-SVG-20010904/DTD/svg10.dtd">
<svg version="1.0" xmlns="http://www.w3.org/2000/svg"
 width="1280.000000pt" height="923.000000pt" viewBox="0 0 1280.000000 923.000000"
 preserveAspectRatio="xMidYMid meet">
<metadata>
Created by potrace 1.15, written by Peter Selinger 2001-2017
</metadata>
<g transform="translate(0.000000,923.000000) scale(0.100000,-0.100000)"
fill="#03a9f4" stroke="none">
<path d="M8945 9196 c-60 -64 -92 -240 -120 -661 -11 -163 -26 -289 -42 -344
-20 -72 -13 -188 16 -263 28 -71 105 -158 166 -187 85 -40 176 -20 253 57 71
71 92 205 92 598 0 202 4 300 16 372 18 113 13 185 -20 257 -46 101 -134 168
-254 194 -72 15 -70 15 -107 -23z"/>
<path d="M6855 8768 c-143 -53 -212 -216 -144 -341 13 -25 226 -269 473 -541
498 -551 494 -546 610 -546 101 1 184 49 229 135 32 60 31 166 -3 222 -14 23
-227 265 -474 538 -492 545 -482 536 -601 542 -33 1 -73 -3 -90 -9z"/>
<path d="M11140 8662 c-152 -102 -367 -351 -674 -779 -114 -160 -130 -197
-124 -283 10 -136 112 -226 253 -224 74 1 145 33 186 84 16 19 90 121 164 225
75 105 198 275 274 379 133 181 209 299 233 364 34 90 -92 234 -232 265 -18 4
-40 -4 -80 -31z"/>
<path d="M5880 7589 c-51 -10 -108 -33 -162 -66 -33 -20 -37 -28 -48 -90 -16
-88 -2 -144 47 -190 19 -18 39 -33 44 -33 6 0 36 -16 67 -36 156 -100 363
-191 792 -347 113 -41 241 -90 285 -107 131 -53 220 -43 303 33 62 58 85 108
85 182 -1 98 -41 158 -146 220 -83 48 -1100 421 -1192 437 -16 3 -50 1 -75 -3z"/>
<path d="M8740 7284 c-513 -81 -945 -356 -1220 -775 -112 -171 -203 -391 -239
-583 l-18 -91 -69 -7 c-38 -3 -130 -11 -204 -17 -74 -6 -175 -18 -225 -27 -74
-13 -191 -16 -645 -18 -589 -3 -666 -8 -743 -53 l-32 -19 -9 -118 c-9 -132 4
-190 48 -220 20 -13 93 -29 234 -52 l34 -5 -79 -82 c-113 -118 -187 -234 -250
-396 -8 -22 -12 -19 -52 48 -111 187 -359 463 -561 623 -263 209 -548 352
-772 388 -126 20 -275 9 -388 -29 -211 -72 -377 -170 -522 -309 -172 -166
-260 -332 -288 -545 -16 -119 9 -277 64 -408 5 -12 -17 -8 -103 22 -540 186
-1081 126 -1494 -168 -104 -74 -276 -244 -355 -351 -192 -260 -257 -426 -256
-657 0 -150 18 -223 89 -370 113 -234 340 -442 629 -576 53 -24 96 -46 96 -49
0 -3 -26 -16 -58 -29 -243 -101 -551 -320 -798 -566 -284 -283 -466 -572 -531
-845 -24 -103 -24 -293 1 -375 41 -135 120 -256 216 -332 174 -138 389 -222
700 -275 99 -16 484 -17 620 0 623 77 1264 342 1604 663 92 87 94 88 100 63 9
-35 63 -117 115 -176 86 -97 270 -199 453 -252 265 -77 640 -77 906 0 320 93
567 276 684 508 l30 60 36 -45 c218 -271 672 -508 1222 -638 199 -47 321 -63
532 -68 214 -6 298 2 460 43 491 123 785 393 869 799 24 114 25 319 3 435 -8
45 -13 84 -11 86 2 2 120 -9 263 -26 350 -40 585 -54 789 -47 455 16 764 105
1028 295 91 65 216 192 274 278 61 90 127 257 173 443 17 67 28 90 54 115 94
89 105 234 24 331 -22 26 -26 44 -32 130 -26 386 -196 750 -435 936 -143 110
-396 200 -665 234 l-48 7 38 25 c22 15 73 54 114 89 271 226 468 534 555 869
146 564 -10 1159 -414 1578 -262 272 -558 436 -925 513 -156 33 -466 42 -616
18z"/>
<path d="M12125 7224 c-171 -31 -889 -207 -957 -235 -40 -16 -98 -76 -119
-123 -22 -49 -25 -143 -5 -190 35 -84 138 -156 225 -156 50 0 636 130 856 191
172 47 302 97 352 135 49 37 113 139 113 179 0 38 -30 97 -85 165 l-40 50
-130 -1 c-71 0 -166 -7 -210 -15z"/>
<path d="M12475 5929 c-18 -6 -280 -13 -655 -17 -686 -9 -658 -6 -733 -71
-109 -96 -106 -270 6 -366 77 -66 83 -67 637 -60 587 8 840 18 896 38 94 32
158 114 170 219 10 96 -37 184 -127 232 -56 31 -144 42 -194 25z"/>
<path d="M11148 4681 c-60 -12 -129 -61 -162 -115 -60 -97 -43 -233 38 -304
18 -15 68 -48 112 -72 43 -23 144 -81 224 -127 181 -107 334 -183 425 -213
172 -58 341 -10 393 110 21 48 20 176 0 215 -51 96 -184 174 -673 397 -234
107 -285 123 -357 109z"/>
</g>
</svg>
