<?xml version="1.0" standalone="no"?>
<!DOCTYPE svg PUBLIC "-//W3C//DTD SVG 20010904//EN"
 "http://www.w3.org/TR/2001/REC-SVG-20010904/DTD/svg10.dtd">
<svg version="1.0" xmlns="http://www.w3.org/2000/svg"
 width="1280.000000pt" height="1181.000000pt" viewBox="0 0 1280.000000 1181.000000"
 preserveAspectRatio="xMidYMid meet">
<metadata>
Created by potrace 1.15, written by Peter Selinger 2001-2017
</metadata>
<g transform="translate(0.000000,1181.000000) scale(0.100000,-0.100000)"
fill="#000000" stroke="none">
<path d="M9354 11799 c-13 -6 -100 -140 -202 -312 l-181 -300 -34 75 c-19 41
-56 123 -82 182 -49 109 -79 146 -120 146 -13 0 -137 -52 -276 -115 -260 -119
-309 -150 -309 -198 1 -12 85 -206 189 -431 l188 -409 -284 -476 c-157 -262
-288 -479 -292 -484 -6 -6 -166 364 -166 384 0 4 56 68 125 142 132 144 156
183 136 229 -16 39 -414 406 -451 416 -39 11 -58 5 -91 -25 -14 -13 -27 -23
-29 -21 -1 2 -12 25 -23 51 -17 37 -29 51 -59 63 l-38 16 -268 -108 c-147 -60
-277 -118 -288 -130 -21 -22 -28 -65 -16 -101 6 -16 3 -23 -12 -28 -10 -3 -26
-20 -34 -38 -17 -37 -100 -525 -99 -577 3 -68 24 -77 262 -116 118 -19 214
-35 215 -37 1 -1 38 -92 83 -202 45 -110 126 -310 182 -445 55 -135 99 -252
98 -261 -2 -8 -75 -135 -162 -282 l-160 -267 -21 20 c-13 12 -35 20 -56 20
-48 0 -549 -194 -571 -221 -35 -42 -33 -51 123 -446 l60 -152 -181 -303 c-100
-167 -185 -307 -189 -311 -13 -13 -254 419 -246 440 3 10 78 140 166 288 165
280 175 307 144 353 -14 18 -264 173 -456 281 -100 56 -124 43 -217 -117 l-60
-103 -40 68 c-196 339 -272 474 -272 480 1 5 146 247 323 538 l323 530 259 14
c278 14 313 21 334 67 9 20 8 86 -4 282 -8 142 -17 276 -21 299 -6 49 -41 83
-85 83 -16 0 -29 2 -29 5 0 3 26 47 57 97 64 105 71 145 31 184 -12 12 -128
86 -256 163 -242 146 -273 158 -318 127 -11 -8 -52 -67 -90 -130 -38 -64 -72
-116 -75 -116 -3 0 -11 11 -17 24 -15 34 -57 59 -90 54 -15 -2 -139 -68 -275
-147 -267 -154 -285 -169 -267 -230 5 -18 51 -107 103 -199 52 -92 100 -177
106 -190 11 -20 -8 -55 -195 -365 -114 -188 -213 -350 -219 -359 -10 -15 -64
73 -358 586 -191 332 -347 610 -347 617 0 7 80 196 177 419 186 426 197 461
158 500 -18 17 -421 201 -519 236 -33 12 -42 12 -70 -1 -38 -18 -38 -18 -183
-354 l-14 -33 -149 258 c-155 270 -179 300 -232 290 -15 -3 -137 -69 -273
-147 -257 -148 -284 -171 -271 -224 3 -13 82 -156 175 -317 93 -161 169 -294
168 -295 -1 -1 -93 6 -204 14 -216 18 -234 16 -262 -28 -7 -13 -20 -130 -34
-309 -22 -307 -22 -320 23 -348 12 -7 201 -27 469 -49 l448 -37 282 -487 c154
-269 281 -491 281 -494 0 -4 -3 -4 -7 -2 -5 3 -101 15 -214 28 l-206 22 -57
176 c-76 231 -81 240 -142 241 -53 0 -545 -164 -576 -193 -30 -26 -37 -71 -18
-108 10 -18 7 -19 -58 -19 -58 0 -72 -3 -90 -22 -11 -13 -23 -34 -26 -48 -7
-30 -66 -529 -66 -558 0 -28 44 -71 80 -78 26 -6 30 -11 30 -38 0 -39 10 -48
220 -218 226 -182 248 -198 279 -198 41 0 63 21 197 188 69 87 130 158 134
160 13 5 964 -109 972 -116 4 -4 76 -128 161 -276 l155 -269 -31 -16 c-18 -9
-37 -27 -43 -41 -10 -22 -84 -535 -84 -582 0 -9 11 -29 24 -45 23 -27 32 -29
307 -68 l283 -40 192 -335 192 -335 -271 -3 c-149 -1 -274 1 -278 5 -4 5 -77
134 -163 288 -86 154 -166 288 -177 298 -43 35 -76 24 -332 -118 -134 -74
-252 -144 -262 -155 -31 -34 -22 -79 39 -189 31 -56 56 -106 56 -113 0 -8 -27
-9 -97 -5 -54 4 -195 7 -313 7 l-215 1 -295 546 -294 547 122 240 c128 251
138 285 103 323 -19 20 -482 263 -528 277 -29 9 -90 -20 -99 -47 -6 -20 -7
-20 -21 -1 -8 10 -30 50 -50 88 -45 89 -72 116 -117 116 -41 0 -507 -245 -544
-286 -12 -14 -22 -37 -22 -52 0 -15 31 -84 69 -154 l69 -128 -40 0 c-30 0 -46
-7 -69 -29 l-29 -29 -2 -209 c-5 -350 -4 -378 11 -405 23 -44 47 -48 290 -48
l229 0 168 -312 c92 -172 183 -342 202 -377 l36 -64 -135 6 c-74 4 -391 7
-706 8 l-572 1 -268 369 c-292 401 -304 414 -368 387 -18 -7 -130 -83 -248
-168 -223 -160 -256 -193 -244 -242 4 -14 56 -93 117 -176 60 -84 110 -154
110 -157 0 -2 -140 -6 -311 -7 l-312 -3 -21 -28 c-20 -27 -21 -41 -24 -323
l-3 -295 30 -29 c29 -29 32 -30 138 -31 59 -1 217 -5 351 -8 l242 -6 -115
-164 c-126 -179 -136 -207 -92 -255 21 -23 407 -300 454 -324 30 -16 74 -15
99 2 11 8 135 177 274 375 l254 361 569 0 c452 0 567 -3 561 -12 -4 -7 -64
-86 -132 -176 -105 -138 -127 -161 -145 -157 -150 36 -342 75 -364 75 -37 0
-67 -22 -81 -57 -15 -39 -122 -527 -122 -557 0 -34 43 -82 81 -90 l31 -6 -24
-32 c-43 -57 -48 -72 -37 -111 8 -32 38 -58 226 -203 118 -91 227 -173 242
-182 33 -18 73 -10 105 21 21 21 25 21 58 9 34 -13 43 -11 287 82 138 52 267
102 285 111 32 15 56 50 56 80 0 8 -34 101 -75 207 -41 106 -75 197 -75 202 0
6 132 184 293 396 l293 385 79 3 c44 2 188 1 321 -3 l240 -7 -4 -28 c-2 -15 1
-37 8 -49 6 -12 112 -103 236 -201 204 -163 228 -180 263 -180 23 0 47 7 59
18 11 9 94 112 186 228 l166 212 242 -5 c134 -3 246 -5 249 -6 4 -1 -63 -127
-149 -279 l-156 -278 -342 0 -342 0 -27 -31 -26 -32 3 -299 3 -300 28 -24 c27
-23 35 -24 163 -24 74 0 134 -2 134 -4 0 -2 -69 -126 -154 -276 l-154 -272
-473 1 c-261 1 -544 4 -629 7 l-155 7 -140 209 c-154 232 -182 263 -229 254
-38 -8 -449 -276 -494 -323 -34 -35 -39 -66 -17 -115 7 -17 -2 -18 -110 -18
-116 0 -117 0 -146 -29 l-29 -29 -2 -214 c-5 -350 -4 -373 11 -400 21 -41 51
-48 200 -48 l138 0 -19 -39 c-19 -40 -18 -71 6 -103 10 -14 363 -220 473 -277
52 -26 83 -27 114 -2 13 10 74 107 134 215 l110 196 280 -1 c154 -1 345 -4
425 -8 l146 -6 -343 -605 c-188 -333 -343 -608 -345 -612 -2 -3 -203 -29 -448
-58 -298 -35 -457 -57 -480 -69 -55 -26 -56 -48 -17 -359 36 -285 44 -314 92
-332 17 -6 85 -2 212 14 104 13 190 22 192 20 2 -2 -61 -119 -140 -261 -159
-285 -165 -306 -113 -352 41 -36 474 -280 510 -286 57 -11 76 14 254 328 l168
298 90 -184 c90 -186 106 -207 155 -207 14 0 114 43 224 96 109 53 226 109
261 126 60 29 92 64 92 102 0 8 -88 196 -195 417 -107 221 -195 407 -195 411
0 12 543 978 550 978 3 0 44 -87 91 -194 l86 -193 -75 -84 c-178 -200 -192
-219 -192 -250 0 -17 4 -39 10 -49 9 -16 352 -322 424 -378 40 -31 78 -28 119
8 l34 29 24 -50 c27 -58 51 -79 91 -79 15 0 142 50 280 111 302 133 328 154
298 233 -8 21 -6 27 10 36 11 6 24 19 30 30 10 19 90 539 90 587 0 12 -11 34
-24 49 -22 26 -35 29 -235 59 -117 18 -216 36 -221 41 -5 5 -97 206 -204 447
l-194 438 155 277 c86 152 157 279 159 281 1 1 13 -6 25 -18 13 -12 35 -21 51
-21 24 0 455 172 537 215 35 18 51 43 51 80 0 14 -47 138 -105 275 -58 138
-105 254 -105 260 0 12 307 559 324 577 8 9 49 -54 161 -248 83 -143 150 -268
150 -277 0 -10 -65 -131 -144 -270 -82 -144 -143 -263 -143 -278 0 -53 22 -71
272 -213 315 -179 314 -179 399 -33 39 66 44 72 55 55 7 -10 79 -134 160 -275
l147 -257 -293 -496 c-190 -323 -299 -500 -313 -504 -11 -5 -132 -16 -270 -25
-180 -13 -256 -21 -273 -32 -45 -30 -47 -45 -27 -342 9 -152 21 -286 25 -297
12 -31 37 -48 80 -54 l38 -6 -59 -100 c-63 -106 -71 -144 -41 -181 29 -36 504
-304 539 -304 42 0 68 28 142 156 l65 111 36 -39 c59 -61 67 -58 345 107 134
80 251 155 259 167 9 12 16 34 16 48 0 15 -50 111 -115 223 -63 108 -115 202
-115 208 0 10 353 615 369 632 5 5 632 -1064 718 -1225 2 -4 -64 -168 -147
-365 -83 -197 -152 -373 -153 -391 -1 -23 6 -40 24 -56 34 -34 520 -238 565
-238 50 0 65 19 120 147 25 61 47 111 49 113 1 1 44 -69 94 -158 96 -165 125
-200 170 -200 31 0 495 269 529 306 41 46 32 69 -130 352 -84 147 -154 271
-156 278 -2 9 9 11 35 8 21 -2 138 -11 260 -20 247 -17 269 -14 291 43 6 15
20 151 30 301 22 297 20 322 -27 346 -18 10 -180 24 -529 47 l-503 33 -186
320 c-102 177 -230 396 -284 489 -90 154 -95 167 -74 167 35 0 497 -50 505
-55 3 -2 33 -86 65 -185 63 -192 85 -230 134 -230 47 0 554 179 580 205 24 24
31 61 19 105 -7 25 -7 25 49 21 60 -3 98 10 115 42 9 18 67 507 68 575 0 42
-46 92 -84 92 -22 0 -26 5 -26 28 0 15 -7 37 -15 49 -15 22 -394 321 -449 354
-40 24 -67 24 -98 0 -14 -11 -81 -92 -149 -181 -124 -160 -124 -160 -159 -155
-19 2 -258 28 -530 56 -272 28 -495 52 -496 52 -10 18 -284 492 -298 516 l-19
33 39 -6 c48 -8 88 5 108 36 9 15 28 126 51 307 40 314 40 328 -18 354 -18 8
-165 31 -327 52 -162 20 -300 42 -307 49 -14 13 -305 518 -301 521 2 1 136 5
298 8 l295 6 163 -274 c90 -150 174 -283 188 -296 45 -43 71 -33 338 125 135
81 250 155 256 166 22 42 10 83 -55 190 l-64 105 107 6 c59 4 201 8 317 9
l209 2 313 -540 313 -539 -115 -237 c-114 -235 -127 -275 -104 -318 10 -19
465 -249 532 -269 38 -11 82 7 104 42 l19 29 58 -100 c61 -106 76 -120 126
-120 37 0 511 269 535 303 28 40 18 77 -54 202 l-70 120 42 8 c25 5 51 19 65
33 21 24 22 33 22 182 0 86 -3 222 -7 302 -6 143 -7 145 -35 174 l-30 29 -236
-5 -237 -6 -208 360 c-115 198 -206 362 -203 365 6 6 1029 32 1256 32 l145 0
250 -326 c321 -418 317 -413 365 -413 34 0 63 19 263 173 230 175 260 206 250
257 -2 14 -58 95 -123 180 l-119 155 102 3 c56 1 196 6 311 10 l208 7 25 29
24 28 -7 287 c-7 310 -12 340 -62 360 -19 8 -125 9 -365 4 -185 -5 -337 -7
-337 -6 0 2 50 77 110 168 118 179 127 204 88 249 -13 14 -126 93 -253 176
-245 160 -277 173 -323 133 -11 -10 -125 -178 -252 -373 -128 -195 -237 -360
-244 -367 -8 -8 -173 -15 -562 -23 -303 -7 -556 -11 -563 -9 -10 4 57 103 199
295 l38 51 174 -33 c226 -44 262 -43 287 5 12 21 111 545 111 583 0 31 -42 75
-81 83 -16 4 -29 9 -29 11 0 2 14 23 30 46 29 39 37 78 24 113 -9 21 -471 352
-505 360 -30 7 -82 -15 -97 -41 -7 -13 -13 -14 -30 -5 -11 6 -31 11 -44 11
-23 0 -505 -195 -546 -221 -21 -13 -42 -50 -42 -74 0 -8 38 -103 84 -211 l85
-198 -285 -401 -284 -402 -242 -6 c-133 -4 -277 -7 -320 -7 -76 0 -79 1 -73
21 15 47 -14 78 -234 243 -119 90 -226 168 -238 174 -23 13 -62 16 -87 6 -8
-3 -92 -108 -186 -234 l-171 -228 -92 -6 c-51 -3 -215 -8 -365 -11 l-274 -6
24 39 c12 21 113 190 223 376 l200 337 329 -5 c370 -6 386 -3 405 57 5 18 11
162 13 320 l3 289 -28 24 c-27 23 -35 24 -159 24 -100 0 -129 3 -125 13 2 6
75 129 161 272 l156 259 77 -2 c43 -1 323 -11 623 -22 460 -17 547 -23 555
-35 6 -9 71 -111 145 -228 147 -230 164 -247 223 -227 18 6 138 77 267 159
260 164 269 173 245 245 l-14 39 104 -7 c122 -8 164 4 183 50 7 17 16 141 21
304 10 298 7 330 -41 349 -13 6 -85 13 -160 17 -76 3 -138 7 -138 9 0 1 7 19
15 39 18 42 12 76 -18 104 -28 26 -466 297 -494 306 -12 4 -36 1 -55 -7 -28
-12 -51 -45 -146 -203 -61 -104 -116 -195 -121 -202 -7 -11 -80 -11 -427 3
-230 9 -420 17 -421 18 -2 3 705 1189 715 1199 5 5 215 29 467 53 490 47 484
46 506 103 6 15 0 124 -17 305 -27 303 -32 322 -88 341 -18 7 -87 4 -212 -8
-102 -10 -187 -16 -189 -14 -2 2 65 120 150 262 85 142 155 265 155 273 0 46
-34 74 -272 218 -134 81 -256 149 -273 151 -16 2 -40 -1 -51 -7z"/>
</g>
</svg>
