<?xml version="1.0" standalone="no"?>
<!DOCTYPE svg PUBLIC "-//W3C//DTD SVG 20010904//EN"
 "http://www.w3.org/TR/2001/REC-SVG-20010904/DTD/svg10.dtd">
<svg version="1.0" xmlns="http://www.w3.org/2000/svg"
 width="1280.000000pt" height="1062.000000pt" viewBox="0 0 1280.000000 1062.000000"
 preserveAspectRatio="xMidYMid meet">
<metadata>
Created by potrace 1.15, written by Peter Selinger 2001-2017
</metadata>
<g transform="translate(0.000000,1062.000000) scale(0.100000,-0.100000)"
fill="#03a9f4" stroke="none">
<path d="M5115 10613 c-337 -27 -602 -79 -875 -171 -575 -195 -1104 -558
-1494 -1024 -54 -65 -105 -118 -115 -118 -9 0 -61 7 -116 15 -200 29 -540 15
-750 -31 -503 -111 -959 -393 -1276 -791 -244 -306 -399 -662 -465 -1068 -25
-154 -25 -496 0 -650 24 -150 68 -325 112 -442 291 -785 992 -1344 1816 -1449
103 -13 180 -15 343 -11 216 5 345 22 511 68 l74 20 123 -115 c528 -496 1148
-796 1855 -896 75 -11 141 -20 147 -20 5 0 4 -5 -3 -12 -36 -36 13 -117 135
-220 98 -84 140 -133 159 -187 15 -42 18 -111 5 -111 -16 0 -55 53 -74 100
-40 97 -38 95 -98 98 -50 3 -59 0 -87 -26 -56 -52 -55 -123 3 -192 37 -45 48
-100 20 -100 -26 0 -93 69 -100 103 -37 179 -81 332 -105 366 -44 60 -93 60
-130 -1 -28 -47 -25 -103 11 -203 17 -47 29 -89 26 -91 -6 -7 -87 47 -106 70
-7 8 -21 55 -32 103 -20 94 -48 136 -97 148 -34 8 -72 -32 -73 -78 l-1 -32
-15 35 c-8 19 -22 43 -30 53 -22 23 -68 22 -94 -4 -19 -19 -20 -28 -14 -88 8
-78 0 -90 -65 -98 -49 -7 -74 -37 -64 -77 9 -37 41 -56 92 -56 l44 0 -36 -40
c-41 -46 -44 -62 -16 -90 27 -27 93 -26 185 0 96 28 150 28 181 -1 13 -13 21
-26 17 -29 -5 -4 -41 -12 -81 -19 -119 -19 -172 -59 -172 -131 0 -85 78 -93
264 -28 98 35 134 43 191 42 73 0 144 -25 153 -53 4 -12 -11 -13 -92 -7 -157
11 -206 -13 -206 -102 0 -85 86 -137 193 -115 90 18 130 -8 62 -40 -63 -30
-149 -23 -312 28 -154 48 -205 54 -240 30 -27 -19 -40 -77 -24 -111 14 -31 80
-60 185 -83 44 -10 81 -22 83 -28 5 -14 -76 -53 -108 -53 -13 0 -50 9 -82 20
-32 11 -80 22 -107 26 -43 6 -51 4 -74 -19 -32 -32 -32 -45 -1 -91 l24 -36
-44 0 c-57 0 -90 -28 -80 -68 9 -39 33 -61 72 -68 52 -10 67 -40 58 -119 -8
-76 2 -95 46 -95 23 0 36 10 66 52 l37 52 7 -33 c9 -43 36 -71 71 -71 42 0 63
29 88 122 29 109 66 180 102 192 15 5 30 7 33 4 4 -3 -8 -46 -25 -94 -39 -109
-37 -155 10 -196 80 -73 139 -5 175 202 19 110 40 170 74 217 28 39 95 83 107
70 4 -4 -17 -45 -46 -92 -30 -49 -54 -102 -57 -125 -5 -34 -1 -43 24 -69 78
-78 198 -29 219 89 6 34 38 80 56 80 11 0 10 -91 -2 -127 -6 -17 -67 -83 -144
-156 -139 -132 -174 -183 -162 -232 11 -43 89 -60 145 -30 16 8 60 49 100 92
l71 78 0 -64 0 -64 -75 -76 c-88 -88 -109 -134 -81 -176 18 -27 72 -35 94 -13
24 24 22 -1 -3 -37 -30 -46 -31 -55 -4 -89 30 -38 72 -35 120 9 22 19 44 35
50 35 19 0 52 -22 77 -51 29 -35 55 -37 87 -4 30 29 31 59 5 103 -11 18 -20
34 -20 36 0 2 17 -1 38 -7 53 -14 90 -3 98 30 10 36 -19 85 -90 154 -32 32
-67 70 -77 86 -22 32 -26 103 -6 103 7 0 37 -27 66 -61 61 -68 104 -99 141
-99 33 0 87 33 95 60 10 32 -36 101 -117 172 -110 96 -159 149 -179 193 -20
42 -26 135 -9 135 15 0 63 -77 85 -138 16 -43 26 -58 48 -65 64 -21 139 18
157 82 13 48 0 92 -39 137 -22 24 -31 45 -31 69 0 41 2 41 45 15 42 -26 63
-59 74 -113 22 -109 61 -269 74 -299 18 -43 64 -88 89 -88 28 0 76 55 84 97 7
36 -6 94 -42 185 -10 26 -15 50 -11 54 9 9 104 -53 112 -74 3 -9 13 -48 21
-85 16 -79 35 -120 66 -141 48 -34 89 -12 103 54 l8 34 20 -43 c23 -48 54 -65
92 -51 38 14 51 51 36 100 -7 23 -9 50 -6 61 8 23 54 49 88 49 32 0 47 18 47
56 0 44 -38 74 -93 74 l-41 0 32 33 c40 41 42 80 7 103 -32 21 -97 15 -206
-17 -81 -24 -112 -22 -150 11 -31 25 -17 35 59 44 64 8 129 34 155 64 10 11
21 38 24 60 4 32 1 44 -17 62 -20 20 -29 22 -84 17 -33 -4 -113 -24 -176 -46
-87 -31 -130 -41 -175 -40 -68 0 -150 27 -150 49 0 12 21 15 121 15 137 0 158
9 170 71 19 102 -70 168 -193 143 -57 -11 -93 -5 -93 16 0 20 74 45 132 45 50
0 79 -7 286 -71 106 -33 113 -34 151 -14 49 25 60 95 23 138 -16 18 -137 60
-209 72 -53 8 -55 27 -5 48 65 28 78 28 155 2 86 -29 143 -32 175 -9 30 21 29
65 -4 103 l-26 31 51 -1 c61 -2 81 12 81 57 0 41 -29 74 -65 74 -14 0 -35 10
-46 21 -20 20 -21 29 -16 95 5 59 4 76 -9 88 -31 32 -72 14 -111 -47 l-26 -42
-11 40 c-13 47 -49 71 -89 61 -33 -8 -42 -25 -74 -134 -13 -47 -33 -103 -44
-124 -18 -36 -74 -76 -87 -63 -4 3 7 42 23 87 15 45 28 101 28 126 0 39 -5 50
-36 79 -42 38 -68 42 -98 12 -33 -33 -56 -96 -79 -219 -27 -144 -57 -209 -117
-255 -80 -61 -84 -42 -13 75 27 45 53 98 56 118 6 32 3 39 -29 69 -30 27 -45
33 -79 33 -24 0 -56 -8 -74 -19 -32 -19 -64 -74 -64 -109 0 -12 -11 -34 -24
-49 -20 -22 -27 -25 -37 -16 -10 10 -10 26 -1 75 l12 62 136 130 c74 72 141
142 148 156 26 50 28 78 6 100 l-20 20 23 4 c12 3 74 14 137 26 234 43 472
117 698 216 70 31 136 58 147 61 12 2 56 -12 100 -32 285 -131 594 -223 902
-270 41 -7 42 -7 28 -28 -21 -30 -19 -51 11 -86 28 -33 27 -34 -28 -31 -50 2
-82 -30 -74 -74 7 -36 39 -66 70 -66 12 0 31 -6 42 -14 17 -13 19 -25 16 -100
-2 -83 -1 -87 22 -98 32 -14 64 5 96 56 25 41 40 46 40 13 0 -41 27 -67 70
-67 46 0 62 18 80 90 38 151 83 230 131 230 10 0 19 -1 19 -3 0 -2 -13 -41
-30 -87 -39 -112 -39 -149 1 -195 24 -27 39 -35 64 -35 57 0 86 57 120 236 33
171 68 234 131 234 l33 0 -41 -65 c-25 -41 -42 -82 -45 -108 -4 -37 -1 -46 25
-70 79 -75 195 -26 217 92 6 34 39 81 57 81 13 0 9 -98 -5 -133 -8 -18 -71
-86 -141 -152 -126 -118 -166 -170 -166 -219 0 -38 39 -60 99 -54 57 6 81 23
151 107 29 33 56 61 61 61 12 0 12 -66 0 -107 -6 -19 -38 -59 -80 -100 -71
-69 -88 -102 -77 -148 10 -38 44 -50 89 -31 20 8 37 13 37 11 0 -2 -11 -21
-25 -41 -30 -44 -31 -68 -5 -94 31 -31 80 -26 115 10 41 43 85 41 121 -5 33
-44 73 -47 103 -9 26 33 26 50 1 97 -21 39 -18 43 26 27 36 -14 82 4 90 35 9
34 -20 81 -107 171 -75 78 -79 85 -79 128 0 30 4 46 13 46 6 0 34 -27 60 -60
64 -79 106 -104 160 -97 28 4 49 14 64 32 21 24 22 28 8 61 -23 56 -39 74
-141 164 -128 113 -156 153 -162 230 -3 40 -1 60 7 60 17 0 70 -79 83 -124 14
-52 41 -76 85 -76 73 0 123 47 123 118 0 48 -11 74 -45 112 -25 27 -37 91 -19
97 6 2 30 -13 53 -34 46 -41 42 -29 96 -265 35 -153 73 -218 128 -218 27 0 64
42 78 89 11 38 10 49 -21 141 -18 55 -31 103 -27 106 3 4 28 -9 54 -28 51 -36
62 -59 83 -163 28 -135 152 -173 162 -50 l3 40 22 -47 c26 -57 60 -77 98 -60
37 17 52 55 37 96 -23 64 -8 92 58 107 56 13 70 25 70 59 0 44 -29 71 -83 77
l-48 6 30 30 c20 19 31 39 31 57 0 60 -58 71 -193 36 -53 -14 -109 -26 -123
-26 -30 0 -84 29 -84 46 0 6 37 18 86 27 91 17 124 33 149 70 26 40 29 80 7
107 -29 36 -110 32 -228 -10 -119 -43 -217 -64 -250 -53 -24 8 -20 10 43 33
175 64 528 257 716 392 226 163 507 428 661 624 l80 101 130 12 c321 28 596
122 849 287 782 512 1057 1504 648 2339 -254 518 -731 880 -1303 991 l-88 17
-59 97 c-148 240 -299 431 -505 635 -536 533 -1190 850 -1962 951 -163 22
-589 25 -749 6 -391 -47 -793 -160 -1076 -303 l-59 -29 -78 36 c-443 206 -957
318 -1435 312 -78 -1 -160 -3 -182 -5z m469 -6758 c-37 -42 -71 -72 -75 -68
-4 5 -4 34 -2 66 6 67 17 75 96 76 l48 1 -67 -75z m2555 59 c9 -8 -85 -2 -104
7 -13 6 0 7 40 3 33 -4 62 -8 64 -10z m-2854 -14 c23 -26 34 -110 13 -110 -13
0 -30 18 -101 107 l-18 23 44 0 c31 0 49 -6 62 -20z"/>
<path d="M2312 4448 c-15 -15 -16 -53 -2 -78 9 -18 8 -19 -18 -14 -23 5 -33 1
-46 -17 -9 -13 -16 -27 -16 -32 0 -4 19 -29 43 -55 67 -73 87 -103 87 -128 0
-13 -3 -24 -7 -24 -4 0 -27 22 -52 49 -53 57 -90 71 -126 47 -47 -31 -35 -60
70 -160 52 -50 99 -104 105 -119 14 -39 13 -80 -2 -75 -13 5 -52 72 -61 107
-4 17 -13 21 -42 21 -48 0 -71 -13 -84 -50 -11 -32 -2 -71 24 -100 21 -24 29
-60 12 -60 -33 0 -59 49 -88 167 -30 123 -52 166 -86 171 -27 4 -63 -42 -63
-79 0 -16 9 -53 21 -84 12 -31 19 -58 17 -60 -2 -3 -19 6 -36 18 -21 14 -36
36 -43 62 -27 94 -32 107 -56 122 -33 22 -56 8 -64 -38 l-5 -34 -8 27 c-4 14
-16 34 -26 43 -38 34 -88 -12 -69 -63 11 -29 -5 -62 -30 -62 -33 0 -64 -33
-56 -59 8 -26 49 -44 79 -35 18 6 17 3 -6 -19 -28 -26 -34 -43 -20 -63 14 -21
55 -22 130 -3 78 20 102 19 122 -6 9 -11 1 -16 -51 -26 -74 -15 -109 -43 -109
-88 0 -32 22 -51 59 -51 11 0 61 14 111 30 103 34 155 37 208 13 l37 -17 -92
-6 c-51 -3 -97 -10 -102 -15 -6 -6 -13 -24 -17 -41 -4 -24 0 -37 19 -60 23
-27 31 -29 94 -30 89 -1 92 -2 63 -19 -36 -20 -104 -18 -185 6 -132 40 -153
43 -180 31 -20 -9 -25 -19 -25 -47 0 -43 32 -66 121 -85 32 -7 59 -16 59 -20
0 -10 -47 -30 -70 -30 -10 0 -46 7 -81 16 -46 12 -68 13 -85 5 -28 -13 -32
-46 -7 -73 15 -17 14 -18 -20 -18 -47 0 -66 -29 -42 -66 8 -13 23 -24 33 -24
31 0 42 -22 42 -81 0 -42 4 -58 16 -63 21 -8 51 9 67 41 l14 26 11 -30 c12
-36 45 -48 71 -25 10 10 28 49 40 87 19 66 62 128 77 112 3 -3 -1 -28 -11 -56
-22 -68 -17 -119 15 -143 51 -37 80 2 111 153 21 98 25 107 67 149 52 52 66
41 26 -21 -14 -23 -33 -57 -40 -75 -13 -31 -12 -35 10 -61 17 -20 33 -27 59
-27 45 0 74 25 87 74 10 37 35 68 46 57 3 -3 3 -24 -1 -47 -6 -35 -22 -55
-105 -138 -100 -98 -124 -138 -100 -167 7 -9 29 -15 52 -15 35 0 45 6 93 57
30 31 57 55 59 52 2 -2 1 -23 -4 -47 -6 -33 -18 -51 -54 -83 -50 -44 -64 -76
-46 -108 13 -25 37 -27 70 -4 l24 17 -22 -31 c-12 -17 -22 -40 -22 -50 0 -43
53 -58 85 -23 25 27 54 25 86 -6 22 -21 30 -24 47 -15 30 16 37 48 17 78 l-17
26 27 -7 c42 -11 65 1 65 34 0 22 -15 46 -60 93 -49 53 -60 71 -60 98 l1 34
36 -40 c70 -77 111 -91 154 -56 23 18 23 20 7 54 -9 19 -49 63 -88 98 -86 77
-110 114 -110 165 l1 39 24 -28 c14 -15 28 -40 31 -55 14 -59 50 -75 103 -47
49 25 56 86 16 133 -14 17 -25 39 -25 51 0 25 4 26 34 6 29 -19 39 -43 66
-167 26 -113 49 -158 83 -158 58 0 77 73 42 164 -10 26 -15 49 -12 52 3 4 19
-4 36 -15 27 -20 51 -70 51 -109 0 -28 32 -72 55 -78 32 -8 55 11 55 45 0 25
1 24 18 -9 20 -41 45 -49 73 -24 16 15 19 26 14 56 -8 44 6 68 39 68 28 0 46
18 46 45 0 30 -19 45 -59 45 -30 1 -34 3 -20 13 26 20 38 51 28 70 -13 22 -61
22 -144 0 -51 -13 -69 -14 -89 -5 -40 18 -31 28 35 41 68 14 109 45 109 84 0
56 -58 61 -199 16 -97 -31 -131 -32 -187 -7 -43 20 -25 28 60 26 98 -3 116 7
116 61 0 61 -32 83 -119 82 -74 -1 -89 8 -46 27 41 19 93 14 195 -18 107 -34
151 -37 174 -14 17 16 21 51 8 70 -12 19 -64 41 -127 54 -55 11 -58 13 -40 27
34 24 63 26 129 8 36 -10 76 -15 90 -11 32 8 42 40 22 71 -16 25 -16 25 19 25
40 0 51 15 41 55 -5 18 -15 27 -37 32 -39 7 -52 33 -44 87 6 37 4 46 -11 54
-26 13 -41 6 -69 -36 -24 -35 -25 -35 -25 -11 0 31 -17 49 -47 49 -28 0 -46
-28 -68 -105 -17 -60 -47 -105 -71 -105 -10 0 -8 14 7 57 24 72 24 104 -1 131
-53 57 -96 9 -124 -136 -18 -96 -34 -130 -76 -166 -44 -37 -56 -32 -29 12 66
109 70 128 36 160 -50 47 -129 17 -143 -55 -3 -18 -15 -40 -25 -49 -18 -16
-19 -16 -19 14 0 53 16 78 114 174 80 77 96 98 96 124 0 36 -16 54 -48 54 -36
0 -63 -17 -114 -73 -45 -50 -47 -51 -48 -25 0 43 17 75 65 121 34 33 45 51 45
74 0 36 -21 57 -49 48 -18 -5 -19 -4 -8 25 12 33 5 55 -25 74 -12 7 -25 2 -52
-22 -20 -18 -41 -32 -47 -32 -6 0 -23 14 -37 30 -28 32 -50 38 -70 18z"/>
<path d="M7948 2340 c-25 -15 -31 -63 -14 -103 l14 -35 -34 5 c-25 4 -40 1
-54 -12 -35 -32 -25 -63 48 -144 77 -86 92 -109 92 -145 0 -39 -21 -31 -65 25
-69 87 -127 109 -179 68 -52 -41 -31 -84 104 -208 55 -51 107 -106 116 -122
19 -37 29 -115 16 -123 -13 -8 -57 57 -77 114 -9 24 -21 48 -28 52 -34 22
-116 -3 -137 -41 -21 -39 -12 -98 20 -134 20 -23 30 -45 30 -66 0 -37 -4 -38
-45 -7 -38 29 -46 49 -75 181 -27 127 -47 183 -76 212 -31 31 -57 29 -88 -8
-34 -40 -34 -98 0 -184 15 -36 24 -68 21 -71 -9 -9 -95 54 -101 74 -2 9 -10
43 -16 75 -18 91 -74 142 -119 110 -15 -10 -21 -26 -22 -56 l-1 -42 -11 32
c-26 70 -75 94 -111 54 -14 -16 -16 -30 -11 -74 6 -50 5 -56 -16 -71 -13 -9
-36 -16 -51 -16 -28 0 -48 -23 -48 -54 0 -31 38 -56 83 -56 l42 0 -27 -23
c-35 -28 -45 -69 -23 -91 22 -22 75 -20 163 4 92 26 115 25 148 -3 l27 -23
-80 -16 c-97 -19 -129 -39 -142 -85 -14 -48 0 -79 39 -86 38 -8 87 2 208 43
52 17 110 30 138 30 50 0 143 -34 130 -48 -4 -3 -55 -7 -113 -7 -98 0 -106 -2
-124 -24 -21 -25 -25 -81 -9 -112 20 -37 68 -52 143 -46 103 9 129 -8 57 -37
-61 -24 -106 -20 -249 24 -71 22 -146 40 -166 40 -46 0 -75 -29 -75 -74 0 -47
30 -69 132 -95 120 -32 116 -30 93 -47 -42 -31 -88 -35 -150 -14 -132 45 -216
5 -154 -74 l20 -26 -39 0 c-40 0 -72 -23 -72 -52 0 -26 40 -68 65 -68 37 0 50
-26 50 -104 l0 -71 35 0 c29 0 39 6 60 39 l25 38 13 -33 c17 -40 28 -49 64
-49 34 0 49 23 73 110 22 81 48 134 77 154 36 25 40 5 13 -74 -33 -97 -32
-124 4 -161 38 -37 73 -38 99 -2 23 34 49 111 58 178 16 116 60 197 127 231
38 20 35 4 -11 -70 -55 -87 -66 -123 -47 -152 55 -85 168 -58 200 48 28 97 59
107 53 17 l-4 -61 -126 -122 c-106 -101 -128 -127 -133 -159 -9 -45 4 -64 50
-73 48 -9 99 19 152 85 25 31 49 58 54 59 5 2 9 -20 9 -48 0 -51 -1 -54 -64
-114 -65 -62 -83 -97 -72 -140 8 -33 39 -41 78 -22 43 22 44 21 14 -15 -28
-32 -34 -77 -14 -97 21 -21 72 -14 98 13 32 34 67 32 106 -6 26 -25 38 -30 59
-25 14 4 31 18 37 32 10 22 9 32 -10 66 -17 32 -18 39 -6 34 63 -24 104 -12
104 30 0 38 -16 62 -91 140 -55 57 -69 78 -69 102 0 51 19 47 76 -16 62 -69
94 -85 143 -68 85 28 69 73 -74 211 -71 68 -120 124 -130 147 -17 42 -20 108
-5 108 14 0 68 -86 75 -121 22 -101 175 -56 175 51 0 29 -8 48 -30 73 -20 23
-30 45 -30 66 0 37 9 39 48 6 35 -30 43 -50 72 -180 27 -127 47 -183 76 -212
31 -31 57 -29 88 8 34 40 34 98 0 184 -15 36 -24 69 -20 72 9 10 86 -46 96
-70 5 -12 14 -48 20 -80 14 -71 50 -117 91 -117 33 0 49 23 49 72 l1 33 15
-35 c30 -70 73 -90 108 -51 14 16 16 30 11 74 -6 50 -5 56 16 71 13 9 33 16
46 16 26 0 53 25 53 50 0 10 -9 28 -19 41 -15 18 -28 23 -60 23 l-41 -1 30 34
c17 18 30 40 30 48 0 47 -82 58 -188 25 -82 -26 -105 -25 -139 4 l-28 24 40 7
c139 23 185 55 185 126 0 71 -53 77 -209 22 -123 -43 -211 -49 -274 -21 -61
28 -38 42 55 33 126 -11 168 12 168 90 0 27 -8 44 -30 67 -29 29 -34 30 -108
28 -100 -3 -112 -2 -112 11 0 16 66 39 115 39 25 0 101 -17 168 -37 167 -50
198 -52 226 -18 35 45 24 93 -28 119 -15 8 -59 22 -97 31 -38 9 -75 19 -83 21
-23 7 5 30 52 44 38 10 51 9 105 -9 79 -27 133 -27 157 -1 21 23 15 55 -16 88
l-21 23 35 -6 c61 -12 101 29 76 77 -15 29 -28 38 -56 38 -38 0 -54 36 -47
106 6 56 5 63 -15 73 -27 15 -53 2 -84 -44 -24 -35 -37 -37 -37 -4 0 42 -72
67 -99 35 -6 -8 -25 -58 -42 -111 -30 -96 -61 -145 -94 -145 -20 0 -19 2 10
85 31 89 31 116 -1 155 -55 64 -120 20 -144 -98 -32 -156 -51 -218 -78 -250
-30 -38 -78 -70 -88 -60 -3 4 14 42 40 85 53 89 58 128 22 162 -32 30 -89 38
-121 17 -31 -21 -65 -73 -65 -102 0 -27 -40 -70 -50 -54 -11 18 0 90 18 120 8
14 55 61 104 105 94 84 148 153 148 191 0 44 -71 69 -123 43 -12 -6 -50 -40
-84 -77 l-62 -67 -1 56 c0 55 0 55 65 117 68 66 84 98 68 141 -8 23 -14 26
-51 24 -41 -2 -42 -1 -27 20 22 31 18 70 -8 95 -31 29 -40 28 -81 -13 -46 -46
-72 -45 -117 5 -39 43 -45 45 -71 30z"/>
<path d="M2098 2299 c-21 -12 -25 -88 -6 -107 8 -8 3 -10 -24 -6 -29 5 -38 2
-52 -17 -24 -35 -21 -46 37 -107 70 -75 87 -101 87 -134 0 -16 -3 -28 -6 -28
-3 0 -31 27 -62 60 -49 51 -63 60 -93 60 -41 0 -69 -24 -69 -61 0 -17 27 -50
99 -119 107 -102 131 -139 131 -196 0 -33 -2 -35 -17 -23 -9 8 -29 42 -44 76
-30 64 -51 80 -91 67 -77 -23 -97 -115 -38 -169 20 -18 28 -65 11 -65 -19 0
-60 43 -70 73 -5 17 -19 75 -31 127 -22 101 -46 152 -80 170 -17 9 -25 6 -50
-19 -37 -37 -38 -68 -5 -156 28 -76 18 -85 -38 -32 -28 25 -36 43 -42 85 -8
61 -44 112 -79 112 -30 0 -46 -18 -47 -54 0 -31 0 -31 -10 -6 -24 58 -62 75
-93 41 -14 -15 -16 -29 -11 -63 8 -50 0 -61 -55 -75 -27 -7 -36 -15 -38 -34
-5 -41 20 -64 67 -62 l41 2 -30 -25 c-33 -28 -38 -55 -15 -74 17 -14 85 -10
176 11 51 11 60 11 84 -5 15 -10 25 -19 23 -22 -2 -2 -35 -10 -72 -18 -80 -17
-116 -45 -116 -91 0 -17 5 -36 12 -43 21 -21 91 -13 184 19 102 36 165 39 220
13 l39 -19 -96 -5 c-57 -3 -102 -10 -112 -18 -22 -19 -30 -61 -17 -92 17 -42
53 -55 137 -52 75 3 94 -8 46 -26 -68 -26 -91 -24 -228 18 -149 45 -176 44
-195 -5 -22 -57 16 -89 134 -116 31 -7 59 -15 61 -19 3 -4 -13 -15 -35 -25
-38 -17 -44 -17 -98 -2 -93 26 -107 27 -130 11 -27 -19 -28 -51 -2 -79 l20
-22 -29 5 c-37 5 -71 -13 -71 -39 0 -30 18 -59 38 -59 10 0 28 -7 41 -16 21
-15 23 -22 17 -64 -4 -26 -4 -55 0 -64 11 -29 51 -19 81 20 l27 37 8 -32 c9
-34 49 -52 76 -34 9 5 30 52 46 103 23 70 38 99 58 114 15 11 30 17 33 14 3
-3 -3 -30 -15 -59 -29 -78 -27 -132 7 -159 15 -11 36 -20 47 -18 30 4 61 70
81 173 20 105 43 155 85 185 49 35 52 19 11 -50 -22 -36 -42 -75 -45 -87 -9
-30 30 -72 75 -79 47 -8 88 26 109 92 17 55 50 75 50 30 0 -52 -32 -101 -115
-176 -86 -77 -133 -144 -122 -174 9 -24 51 -40 84 -32 16 4 53 34 86 68 31 34
59 59 61 57 2 -2 2 -25 -1 -52 -5 -41 -11 -52 -53 -87 -57 -48 -78 -90 -62
-125 14 -30 47 -33 82 -8 24 17 23 16 -3 -18 -31 -41 -34 -61 -11 -83 23 -23
57 -19 84 9 31 33 47 32 87 -7 28 -28 35 -30 57 -20 32 14 40 44 22 81 l-15
29 37 -5 c46 -6 68 14 58 53 -4 14 -36 57 -71 94 -51 54 -65 76 -65 100 0 16
4 30 10 30 5 0 26 -20 46 -45 21 -24 53 -52 71 -60 29 -14 36 -14 68 -1 65 28
45 77 -80 190 -89 81 -115 121 -115 177 0 47 20 31 60 -47 39 -75 57 -86 112
-63 58 24 70 105 22 150 -14 13 -24 34 -24 51 0 33 2 33 36 12 34 -23 40 -35
68 -163 14 -62 33 -128 42 -147 30 -62 81 -69 109 -14 21 40 19 69 -10 145
-13 36 -21 65 -18 65 13 0 74 -43 82 -58 5 -10 12 -37 16 -62 10 -63 31 -99
62 -106 36 -9 57 7 61 46 l4 34 18 -42 c14 -32 25 -42 42 -42 43 0 53 15 53
76 0 60 3 64 60 81 61 18 35 93 -33 93 l-35 0 27 25 c71 66 -4 108 -128 70
-67 -20 -109 -19 -130 4 -17 19 -16 20 31 27 65 9 121 32 133 55 14 25 12 73
-2 87 -20 20 -73 14 -171 -19 -110 -38 -185 -42 -237 -13 l-35 19 102 5 c63 3
107 10 115 18 7 7 13 31 13 53 0 33 -6 46 -30 66 -26 23 -35 25 -96 21 -37 -3
-72 -2 -79 2 -21 13 19 33 75 38 52 4 79 -1 233 -50 71 -23 105 -18 127 16 38
57 -9 100 -138 126 -48 10 -56 14 -46 26 24 29 73 33 148 11 53 -16 78 -19 98
-11 34 11 41 45 19 80 -16 24 -16 24 17 24 38 0 57 15 57 45 0 25 -29 55 -53
55 -34 0 -49 29 -42 84 5 41 3 55 -9 65 -23 19 -60 1 -83 -41 -17 -33 -17 -33
-21 -8 -7 48 -46 73 -80 51 -8 -4 -27 -48 -43 -96 -28 -86 -59 -135 -86 -135
-17 0 -17 0 7 61 29 72 24 135 -11 162 -55 40 -95 -12 -123 -160 -20 -107 -35
-141 -80 -181 -61 -54 -72 -43 -26 27 16 26 36 63 45 85 14 34 14 40 1 61 -23
36 -78 50 -115 30 -30 -15 -61 -60 -61 -87 0 -8 -7 -24 -16 -37 -23 -33 -38
-13 -29 41 6 38 19 55 115 149 108 105 134 145 113 178 -5 8 -20 18 -34 21
-45 12 -86 -8 -135 -65 -25 -30 -50 -55 -55 -55 -5 0 -6 19 -3 43 5 33 18 54
60 97 61 62 76 106 48 134 -11 12 -25 15 -42 11 -21 -5 -23 -3 -17 12 17 42
16 62 -4 82 -28 28 -43 26 -74 -9 -35 -39 -58 -38 -101 5 -20 19 -37 35 -38
35 -2 0 -11 -5 -20 -11z"/>
</g>
</svg>
