<?xml version="1.0" standalone="no"?>
<!DOCTYPE svg PUBLIC "-//W3C//DTD SVG 20010904//EN"
 "http://www.w3.org/TR/2001/REC-SVG-20010904/DTD/svg10.dtd">
<svg version="1.0" xmlns="http://www.w3.org/2000/svg"
 width="1280.000000pt" height="698.000000pt" viewBox="0 0 1280.000000 698.000000"
 preserveAspectRatio="xMidYMid meet">
<metadata>
Created by potrace 1.15, written by Peter Selinger 2001-2017
</metadata>
<g transform="translate(0.000000,698.000000) scale(0.100000,-0.100000)"
fill="#2196f3" stroke="none">
<path d="M6710 6973 c-74 -6 -239 -32 -330 -54 -439 -101 -861 -351 -1166
-689 -42 -47 -79 -85 -83 -85 -3 0 -71 33 -151 72 -309 152 -576 218 -921 230
-628 21 -1224 -214 -1675 -662 -283 -281 -494 -651 -590 -1033 -19 -75 -36
-137 -38 -139 -1 -2 -50 -16 -108 -33 -378 -106 -726 -315 -1008 -606 -333
-343 -541 -763 -616 -1244 -25 -161 -25 -502 0 -655 85 -518 312 -959 672
-1305 433 -416 976 -634 1574 -634 276 0 525 42 770 129 112 40 341 155 456
228 l101 65 119 -29 c359 -88 751 -85 1104 6 51 13 65 14 79 3 10 -7 65 -48
122 -91 301 -226 660 -372 1054 -429 135 -19 474 -16 614 5 400 63 739 207
1061 451 l104 79 41 -23 c22 -12 81 -44 131 -71 569 -305 1275 -342 1883 -100
57 23 121 51 142 61 38 20 41 20 136 3 139 -25 556 -25 698 0 644 113 1186
463 1540 996 408 616 488 1409 208 2096 -235 578 -700 1037 -1282 1264 -233
91 -525 151 -733 151 l-81 0 -71 77 c-39 42 -120 119 -181 171 -361 309 -807
496 -1285 537 l-76 7 -32 63 c-189 363 -537 713 -914 919 -377 205 -835 302
-1268 269z"/>
</g>
</svg>
