<?xml version="1.0" standalone="no"?>
<!DOCTYPE svg PUBLIC "-//W3C//DTD SVG 20010904//EN"
 "http://www.w3.org/TR/2001/REC-SVG-20010904/DTD/svg10.dtd">
<svg version="1.0" xmlns="http://www.w3.org/2000/svg"
 width="1280.000000pt" height="916.000000pt" viewBox="0 0 1280.000000 916.000000"
 preserveAspectRatio="xMidYMid meet">
<metadata>
Created by potrace 1.15, written by Peter Selinger 2001-2017
</metadata>
<g transform="translate(0.000000,916.000000) scale(0.100000,-0.100000)"
fill="#03a9f4" stroke="none">
<path d="M6293 9144 c-498 -60 -942 -272 -1306 -623 -110 -106 -237 -253 -316
-367 l-43 -61 -77 32 c-423 179 -862 209 -1316 90 -526 -137 -975 -461 -1278
-920 -32 -49 -92 -157 -132 -240 -105 -214 -164 -405 -200 -650 -21 -138 -22
-461 -2 -589 l14 -88 -51 -21 c-430 -175 -776 -542 -920 -977 -95 -288 -108
-552 -40 -818 l24 -97 -22 -18 c-206 -163 -297 -258 -401 -417 -101 -156 -156
-290 -199 -481 -32 -148 -32 -406 1 -559 65 -303 196 -545 407 -752 165 -161
339 -268 554 -341 227 -77 75 -71 1830 -77 l1574 -5 14 -50 c81 -307 225 -547
452 -750 211 -189 498 -318 790 -354 117 -15 5741 -15 5860 -1 464 57 859 318
1099 726 130 221 202 521 188 784 -24 442 -243 833 -622 1105 l-28 20 17 57
c47 162 63 332 47 490 -19 186 -59 345 -127 500 l-33 77 10 88 c16 130 6 433
-20 569 -62 331 -190 622 -392 891 -86 113 -279 315 -377 393 l-69 55 -6 140
c-27 577 -256 1083 -673 1486 -369 356 -835 561 -1364 600 -165 12 -283 1
-444 -41 -64 -16 -121 -30 -125 -30 -4 0 -20 22 -35 49 -163 300 -451 609
-761 816 -113 75 -338 189 -465 235 -327 120 -704 165 -1037 124z m433 -284
c464 -45 867 -231 1207 -559 181 -175 310 -352 434 -596 36 -71 66 -131 67
-132 1 -2 65 15 142 37 327 94 382 103 573 89 734 -52 1358 -510 1631 -1197
101 -256 150 -578 116 -767 -16 -87 -16 -91 2 -105 11 -8 73 -57 140 -108 428
-329 683 -780 737 -1302 l7 -65 -33 31 c-118 107 -164 144 -244 197 -174 115
-360 192 -570 238 -83 18 -134 22 -295 23 -225 1 -275 -6 -468 -70 -149 -50
-142 -48 -142 -33 0 23 -94 196 -158 292 -36 54 -108 144 -161 199 -234 246
-497 393 -831 465 -131 28 -479 26 -612 -4 -240 -54 -436 -145 -624 -289 l-81
-61 -82 99 c-423 509 -1107 704 -1713 489 -47 -17 -89 -31 -92 -31 -3 0 -23
37 -44 83 -86 181 -195 330 -355 483 -214 204 -458 333 -753 396 -143 30 -447
33 -589 5 -493 -97 -918 -427 -1125 -871 -52 -110 -34 -105 -186 -52 -154 53
-256 70 -434 70 -85 1 -181 -2 -212 -6 l-56 -8 -7 29 c-26 121 -21 451 11 619
77 414 302 809 614 1080 348 301 773 463 1225 464 301 1 530 -57 859 -219 88
-42 112 -51 121 -41 7 7 43 63 80 123 37 61 100 153 138 205 88 118 293 323
411 412 397 297 874 433 1352 388z"/>
</g>
</svg>
