<?xml version="1.0" standalone="no"?>
<!DOCTYPE svg PUBLIC "-//W3C//DTD SVG 20010904//EN"
 "http://www.w3.org/TR/2001/REC-SVG-20010904/DTD/svg10.dtd">
<svg version="1.0" xmlns="http://www.w3.org/2000/svg"
 width="1138.000000pt" height="1280.000000pt" viewBox="0 0 1138.000000 1280.000000"
 preserveAspectRatio="xMidYMid meet">
<metadata>
Created by potrace 1.15, written by Peter Selinger 2001-2017
</metadata>
<g transform="translate(0.000000,1280.000000) scale(0.100000,-0.100000)"
fill="#03a9f4" stroke="none">
<path d="M6420 12793 c-72 -6 -187 -25 -250 -40 -120 -29 -182 -64 -284 -162
-100 -95 -122 -106 -226 -117 -84 -9 -213 20 -405 91 -288 107 -348 112 -538
50 -472 -153 -796 -356 -1056 -660 -72 -84 -345 -430 -506 -643 l-70 -92 -46
0 c-131 0 -497 -64 -722 -126 -637 -175 -1017 -462 -1129 -851 -19 -66 -23
-101 -22 -228 1 -136 3 -157 28 -229 15 -43 45 -111 68 -150 58 -100 215 -254
347 -341 102 -66 394 -222 501 -266 30 -12 56 -23 58 -24 1 -1 -16 -78 -38
-170 -22 -93 -39 -173 -37 -178 1 -5 27 68 57 162 49 154 57 172 75 167 165
-37 171 -38 335 -33 111 4 195 12 255 25 l89 20 66 -60 c36 -33 135 -122 221
-199 l156 -139 -25 -50 c-14 -29 -30 -90 -39 -147 -44 -296 -101 -626 -228
-1328 -59 -327 -93 -541 -90 -560 5 -22 4 -26 -4 -15 -6 8 -11 10 -11 4 0 -6
-11 -71 -25 -144 -13 -74 -23 -135 -21 -137 8 -8 75 296 70 322 -3 23 -2 26 4
10 8 -17 11 -13 19 25 6 25 38 162 71 305 34 143 120 529 191 857 72 329 137
621 146 650 8 28 15 69 15 89 0 21 3 40 8 43 4 2 52 -29 107 -71 366 -274 717
-452 1031 -524 76 -17 129 -22 229 -22 195 0 344 34 800 183 149 48 284 91
301 94 21 5 71 -3 150 -23 378 -94 662 -125 1107 -119 206 2 247 1 247 -11 0
-8 -14 -89 -31 -180 -17 -91 -32 -189 -32 -218 -1 -29 -4 -48 -7 -43 -3 5 -11
-23 -18 -63 -7 -40 -20 -105 -29 -145 -8 -40 -13 -75 -11 -77 3 -3 135 526
177 710 l7 30 170 27 c427 67 661 129 864 226 95 45 215 150 368 322 99 110
281 351 324 428 17 29 32 51 35 49 2 -3 -5 -42 -17 -87 -12 -45 -19 -84 -16
-87 2 -2 21 48 42 111 l38 116 181 1 c99 0 263 4 365 9 201 8 250 20 420 97
353 161 700 576 700 837 0 81 -33 279 -58 343 -89 234 -465 500 -932 661 -165
56 -232 73 -415 101 -300 47 -389 93 -551 283 -48 57 -120 137 -160 178 -39
41 -97 116 -127 165 -70 114 -153 213 -242 289 -156 132 -399 270 -669 381
-298 122 -804 270 -1001 294 -83 10 -272 12 -355 4z m937 -5125 c-3 -8 -6 -5
-6 6 -1 11 2 17 5 13 3 -3 4 -12 1 -19z m-10 -40 c-3 -8 -6 -5 -6 6 -1 11 2
17 5 13 3 -3 4 -12 1 -19z m-4360 -1040 c-3 -8 -6 -5 -6 6 -1 11 2 17 5 13 3
-3 4 -12 1 -19z"/>
<path d="M9091 8234 c-35 -25 -59 -93 -76 -222 -21 -155 -104 -636 -221 -1282
-58 -324 -92 -536 -89 -555 4 -20 3 -26 -3 -16 -7 10 -12 2 -17 -30 -3 -24
-16 -90 -27 -147 -11 -57 -18 -105 -16 -108 7 -7 176 698 273 1141 53 242 126
573 162 735 82 368 97 454 83 480 -13 24 -38 26 -69 4z m-364 -1986 c-3 -8 -6
-5 -6 6 -1 11 2 17 5 13 3 -3 4 -12 1 -19z m-10 -50 c-3 -8 -6 -5 -6 6 -1 11
2 17 5 13 3 -3 4 -12 1 -19z"/>
<path d="M2724 7750 c-28 -11 -50 -69 -64 -171 -21 -151 -253 -1451 -276
-1546 -4 -16 -4 -26 -2 -23 11 10 117 451 276 1150 102 450 125 588 97 596 -5
1 -19 -1 -31 -6z"/>
<path d="M10610 7547 c-43 -21 -68 -90 -90 -247 -26 -187 -86 -534 -215 -1255
-127 -704 -120 -668 -145 -789 -11 -55 -18 -101 -16 -103 9 -9 76 290 70 315
-4 18 -3 23 4 14 13 -20 108 382 303 1283 49 231 101 465 114 520 38 161 46
252 21 267 -15 10 -17 10 -46 -5z m-373 -1989 c-3 -8 -6 -5 -6 6 -1 11 2 17 5
13 3 -3 4 -12 1 -19z m-10 -50 c-3 -7 -5 -2 -5 12 0 14 2 19 5 13 2 -7 2 -19
0 -25z"/>
<path d="M4310 7393 c-50 -18 -80 -95 -100 -253 -15 -126 -99 -614 -216 -1259
-59 -326 -92 -537 -89 -555 5 -23 4 -27 -4 -16 -6 8 -11 10 -11 4 0 -6 -11
-73 -25 -149 -14 -75 -24 -139 -22 -141 7 -7 177 709 272 1141 53 242 126 573
162 735 89 397 100 473 72 491 -16 10 -18 10 -39 2z m-383 -1995 c-3 -8 -6 -5
-6 6 -1 11 2 17 5 13 3 -3 4 -12 1 -19z m-10 -50 c-3 -8 -6 -5 -6 6 -1 11 2
17 5 13 3 -3 4 -12 1 -19z"/>
<path d="M8093 7390 c-47 -19 -58 -56 -103 -340 -22 -139 -176 -988 -256
-1414 -25 -131 -43 -240 -41 -242 7 -8 58 217 51 228 -4 6 -3 8 3 5 11 -7 99
355 239 983 52 234 108 477 123 540 40 161 46 214 26 234 -9 9 -17 16 -18 15
-1 0 -12 -4 -24 -9z"/>
<path d="M9874 6970 c-44 -18 -73 -98 -94 -265 -23 -183 -116 -695 -251 -1369
-32 -164 -58 -300 -56 -302 10 -11 448 1747 462 1858 6 49 -6 88 -28 87 -7 0
-21 -4 -33 -9z"/>
<path d="M11307 6719 c-39 -23 -65 -104 -87 -279 -6 -47 -65 -407 -130 -800
-66 -393 -122 -731 -125 -750 -9 -62 43 128 101 360 30 124 91 387 135 585 43
198 98 441 121 540 52 225 65 319 48 340 -14 17 -37 19 -63 4z m-280 -1581
c-3 -7 -5 -2 -5 12 0 14 2 19 5 13 2 -7 2 -19 0 -25z m-10 -40 c-3 -8 -6 -5
-6 6 -1 11 2 17 5 13 3 -3 4 -12 1 -19z m-10 -50 c-3 -8 -6 -5 -6 6 -1 11 2
17 5 13 3 -3 4 -12 1 -19z"/>
<path d="M6687 6548 c-39 -14 -64 -69 -82 -180 -68 -424 -112 -677 -211 -1233
-63 -352 -125 -698 -139 -770 -44 -239 -43 -253 4 -60 17 66 28 132 25 145 -4
16 -3 21 3 12 14 -18 122 443 328 1398 42 195 87 398 100 450 13 52 26 120 29
150 10 85 -4 106 -57 88z m-380 -2000 c-3 -8 -6 -5 -6 6 -1 11 2 17 5 13 3 -3
4 -12 1 -19z m-10 -50 c-3 -8 -6 -5 -6 6 -1 11 2 17 5 13 3 -3 4 -12 1 -19z"/>
<path d="M8631 5844 c0 -11 3 -14 6 -6 3 7 2 16 -1 19 -3 4 -6 -2 -5 -13z"/>
<path d="M3137 5702 c-23 -25 -43 -86 -52 -157 -10 -89 -104 -600 -236 -1288
-17 -88 -28 -161 -26 -164 3 -2 10 15 15 39 5 24 39 160 75 303 36 143 89 359
117 480 28 121 76 324 106 452 30 127 56 258 57 290 2 52 0 58 -19 61 -11 2
-28 -5 -37 -16z"/>
<path d="M8115 5306 c-17 -26 -24 -65 -70 -381 -31 -211 -156 -1004 -186
-1183 -11 -68 -19 -126 -16 -128 3 -3 8 14 12 38 4 24 20 99 35 168 81 364
280 1381 283 1450 2 50 0 55 -20 58 -14 2 -27 -5 -38 -22z"/>
<path d="M2111 5214 c-38 -27 -59 -96 -86 -277 -32 -225 -89 -551 -241 -1391
-68 -379 -123 -690 -121 -692 6 -7 169 674 262 1096 52 239 127 579 167 755
39 176 74 345 79 375 4 30 10 69 14 86 5 22 2 35 -10 47 -21 21 -34 21 -64 1z
m-374 -2036 c-3 -8 -6 -5 -6 6 -1 11 2 17 5 13 3 -3 4 -12 1 -19z m-10 -40
c-3 -8 -6 -5 -6 6 -1 11 2 17 5 13 3 -3 4 -12 1 -19z"/>
<path d="M4943 5208 c-25 -27 -39 -77 -49 -168 -7 -73 -74 -514 -163 -1070
-33 -206 -62 -395 -65 -420 -5 -44 -5 -44 9 10 21 78 143 672 210 1015 31 160
65 333 76 385 25 117 42 239 35 257 -8 20 -30 16 -53 -9z"/>
<path d="M3831 4994 c0 -11 3 -14 6 -6 3 7 2 16 -1 19 -3 4 -6 -2 -5 -13z"/>
<path d="M2811 4064 c0 -11 3 -14 6 -6 3 7 2 16 -1 19 -3 4 -6 -2 -5 -13z"/>
<path d="M6768 3770 c-38 -29 -55 -83 -78 -242 -32 -222 -307 -1791 -356
-2023 -24 -121 -14 -105 22 30 67 259 176 731 294 1275 66 305 134 611 150
680 45 193 53 276 27 292 -19 12 -32 10 -59 -12z m-371 -2032 c-3 -8 -6 -5 -6
6 -1 11 2 17 5 13 3 -3 4 -12 1 -19z m-10 -40 c-3 -8 -6 -5 -6 6 -1 11 2 17 5
13 3 -3 4 -12 1 -19z"/>
<path d="M7831 3584 c0 -11 3 -14 6 -6 3 7 2 16 -1 19 -3 4 -6 -2 -5 -13z"/>
<path d="M3923 3568 c-35 -17 -61 -84 -79 -199 -39 -262 -254 -1487 -353
-2019 -36 -189 -32 -178 43 115 87 342 147 602 295 1285 60 278 118 542 129
585 28 110 37 212 22 230 -14 17 -26 18 -57 3z m-376 -2010 c-3 -8 -6 -5 -6 6
-1 11 2 17 5 13 3 -3 4 -12 1 -19z m-10 -50 c-3 -8 -6 -5 -6 6 -1 11 2 17 5
13 3 -3 4 -12 1 -19z"/>
<path d="M4652 3480 c0 -14 2 -19 5 -12 2 6 2 18 0 25 -3 6 -5 1 -5 -13z"/>
<path d="M4641 3434 c0 -11 3 -14 6 -6 3 7 2 16 -1 19 -3 4 -6 -2 -5 -13z"/>
<path d="M3002 3397 c-24 -26 -33 -64 -83 -357 -28 -171 -82 -465 -195 -1064
-70 -371 -57 -335 86 254 43 179 104 438 135 575 31 138 70 304 86 369 16 66
31 147 32 180 2 55 0 61 -18 64 -12 2 -30 -8 -43 -21z"/>
<path d="M1651 2824 c0 -11 3 -14 6 -6 3 7 2 16 -1 19 -3 4 -6 -2 -5 -13z"/>
<path d="M493 2520 c-41 -17 -70 -104 -93 -285 -15 -122 -92 -563 -206 -1195
-53 -289 -96 -548 -97 -577 -1 -29 -4 -48 -7 -43 -3 6 -12 -25 -19 -68 -8 -42
-20 -104 -27 -137 -28 -123 -11 -85 27 60 73 285 188 782 309 1340 67 308 132
603 145 655 30 124 41 226 25 245 -14 17 -25 18 -57 5z m-376 -2022 c-3 -8 -6
-5 -6 6 -1 11 2 17 5 13 3 -3 4 -12 1 -19z m-10 -40 c-3 -8 -6 -5 -6 6 -1 11
2 17 5 13 3 -3 4 -12 1 -19z"/>
<path d="M2671 1704 c0 -11 3 -14 6 -6 3 7 2 16 -1 19 -3 4 -6 -2 -5 -13z"/>
<path d="M6311 1384 c0 -11 3 -14 6 -6 3 7 2 16 -1 19 -3 4 -6 -2 -5 -13z"/>
</g>
</svg>
